<?xml version="1.0" standalone="no"?>
<!DOCTYPE svg PUBLIC "-//W3C//DTD SVG 20010904//EN"
 "http://www.w3.org/TR/2001/REC-SVG-20010904/DTD/svg10.dtd">
<svg version="1.0" xmlns="http://www.w3.org/2000/svg"
 width="1080.000000pt" height="1080.000000pt" viewBox="0 0 1080.000000 1080.000000"
 preserveAspectRatio="xMidYMid meet">
<metadata>
Created by potrace 1.14, written by Peter Selinger 2001-2017
</metadata>
<g transform="translate(0.000000,1080.000000) scale(0.100000,-0.100000)"
fill="#000000" stroke="none">
<path d="M5209 10725 c-1 -3 -2 -9 -3 -14 -2 -13 -16 -26 -16 -14 0 5 -14 9
-30 9 -21 0 -29 -4 -26 -12 5 -13 -12 -12 -48 2 -12 5 -17 4 -13 -3 4 -6 -8
-9 -33 -6 -21 2 -41 -1 -45 -7 -5 -8 -11 -8 -20 0 -8 6 -35 13 -62 14 -26 2
-42 1 -35 -1 6 -3 12 -9 12 -14 0 -4 -7 -6 -15 -3 -8 4 -15 1 -15 -6 0 -7 -6
-6 -16 4 -21 22 -40 20 -23 -1 13 -17 12 -17 -5 -3 -24 19 -44 21 -50 4 -3 -7
-12 -11 -21 -8 -8 3 -12 11 -9 18 3 6 -1 4 -8 -6 -10 -11 -19 -13 -30 -7 -11
6 -19 5 -24 -2 -4 -7 -3 -9 4 -5 6 3 13 3 16 -2 2 -4 -4 -9 -15 -9 -10 -1 -19
2 -19 7 0 11 -30 6 -38 -6 -10 -13 -43 -14 -35 0 4 6 -5 3 -20 -6 -14 -10 -30
-18 -34 -18 -4 0 -2 4 6 9 9 6 5 9 -13 9 -15 0 -29 -4 -32 -9 -3 -5 2 -6 10
-3 9 3 16 4 16 1 0 -14 -32 -14 -47 1 -16 16 -17 16 -10 0 3 -10 2 -18 -4 -18
-6 0 -7 -5 -3 -12 4 -7 3 -8 -5 -4 -6 4 -9 11 -6 16 3 4 -3 14 -13 21 -15 13
-16 12 -3 -3 9 -13 10 -18 2 -18 -7 0 -9 -6 -5 -12 5 -10 4 -10 -6 -1 -8 8
-20 9 -37 2 -15 -5 -22 -5 -18 0 3 5 1 12 -5 16 -6 3 -10 -4 -11 -17 0 -13 -3
-17 -6 -10 -2 6 -9 12 -14 12 -6 0 -8 -4 -4 -9 3 -5 0 -13 -6 -17 -8 -4 -9 -3
-5 4 4 7 2 12 -4 12 -6 0 -8 5 -4 13 6 9 4 9 -7 1 -8 -6 -22 -10 -32 -9 -15 3
-16 1 -6 -11 9 -11 9 -14 0 -14 -7 0 -9 -5 -5 -11 4 -7 -1 -7 -16 1 -19 10
-24 10 -32 -5 -9 -15 -11 -15 -31 2 -11 10 -18 13 -14 8 3 -6 -3 -16 -13 -23
-15 -9 -22 -9 -33 3 -13 12 -16 12 -20 -5 -3 -11 -11 -20 -19 -20 -10 0 -10 3
2 11 12 9 12 10 -3 5 -10 -3 -21 -6 -23 -6 -3 0 -2 -6 2 -12 4 -7 4 -10 -1 -6
-4 4 -14 3 -22 -3 -7 -6 -13 -8 -13 -5 0 4 -9 2 -19 -4 -16 -8 -22 -6 -31 7
-11 17 -11 17 -6 -1 5 -13 2 -17 -9 -12 -8 3 -23 9 -32 12 -15 5 -16 4 -3 -5
13 -9 12 -11 -5 -12 -11 -1 -23 -1 -27 0 -4 0 -5 -5 -2 -13 6 -17 -23 -29 -32
-14 -4 7 -3 8 4 4 7 -4 12 -2 12 3 0 15 -13 14 -28 -1 -10 -10 -15 -10 -22 2
-8 12 -10 10 -11 -10 0 -14 -3 -19 -6 -12 -6 15 -33 16 -33 1 0 -5 4 -7 10 -4
6 3 7 -1 4 -9 -5 -14 -8 -14 -21 -1 -20 20 -29 19 -12 -2 13 -15 12 -15 -11
-3 -22 12 -24 12 -12 -3 11 -13 10 -15 -7 -10 -12 3 -18 10 -14 16 3 6 1 7 -5
3 -7 -4 -12 -13 -12 -21 0 -8 -5 -17 -12 -21 -7 -4 -8 -3 -4 4 10 17 -6 15
-31 -3 -20 -14 -23 -14 -32 2 -7 14 -9 10 -7 -19 4 -44 1 -46 -15 -17 -8 15
-8 19 0 15 17 -11 13 0 -6 15 -11 10 -14 10 -9 2 5 -9 1 -13 -11 -14 -10 0
-13 -3 -5 -6 18 -7 14 -19 -7 -19 -11 0 -18 4 -15 7 2 4 -1 11 -8 15 -7 4 -10
4 -6 0 3 -4 -1 -16 -10 -25 -13 -14 -22 -15 -37 -8 l-20 10 20 -23 c11 -13 13
-20 5 -15 -20 12 -50 14 -50 3 0 -4 5 -8 12 -8 6 0 9 -2 6 -5 -9 -10 -38 7
-31 18 3 6 1 7 -5 3 -7 -4 -12 -13 -12 -20 0 -8 -10 -12 -25 -10 -17 1 -30 -4
-38 -17 -6 -10 -15 -19 -20 -19 -4 0 -5 5 -1 12 4 7 3 8 -4 4 -6 -4 -9 -12 -6
-19 3 -8 -5 -13 -18 -14 -18 -2 -19 0 -8 7 10 6 6 8 -15 5 -17 -2 -31 -4 -33
-4 -1 -1 2 -10 8 -20 7 -14 7 -22 0 -26 -6 -4 -9 -1 -8 6 2 7 -4 14 -12 14
-21 1 -60 -16 -60 -27 0 -5 -4 -6 -10 -3 -5 3 -21 -2 -35 -11 -14 -9 -32 -13
-41 -10 -14 5 -15 4 -5 -8 9 -11 8 -15 -4 -20 -8 -3 -15 -1 -15 4 0 6 -9 5
-20 -2 -11 -7 -18 -18 -16 -24 2 -6 -4 -18 -14 -27 -16 -13 -19 -14 -24 -1 -3
9 -1 12 4 9 6 -3 10 -1 10 4 0 16 -16 13 -31 -6 -8 -9 -9 -14 -2 -10 13 8 12
-18 -2 -30 -4 -4 -5 -2 -1 5 4 6 3 12 -3 12 -5 0 -11 -3 -14 -7 -2 -5 -2 -2
-1 5 2 6 0 12 -5 12 -5 0 -11 -9 -14 -19 -3 -15 -12 -19 -33 -16 -26 3 -27 2
-9 -11 19 -14 18 -14 -5 -10 -14 2 -24 9 -22 16 1 6 -2 9 -8 5 -7 -4 -7 -12 0
-26 6 -10 9 -19 8 -20 -2 0 -12 -2 -22 -4 -10 -2 -23 -10 -27 -17 -6 -9 -9 -9
-9 -1 0 6 9 18 21 26 11 8 16 18 11 21 -6 3 -13 -1 -16 -10 -3 -9 -13 -14 -21
-11 -10 4 -12 1 -8 -10 5 -12 3 -14 -8 -8 -11 7 -12 6 -2 -6 10 -13 8 -15 -17
-13 -17 1 -27 -2 -24 -7 3 -5 0 -17 -6 -26 -10 -15 -11 -16 -6 -1 2 9 -1 19
-9 21 -9 4 -12 -2 -10 -18 2 -21 -1 -23 -16 -14 -18 9 -24 2 -20 -23 2 -14
-37 -29 -45 -16 -4 7 -3 8 4 4 8 -5 10 -2 6 8 -5 14 -8 14 -21 1 -8 -9 -19
-13 -24 -9 -5 3 -8 0 -7 -8 2 -7 -5 -12 -14 -12 -10 1 -15 -2 -12 -7 3 -5 0
-9 -6 -9 -6 0 -10 -7 -8 -16 4 -21 -30 -28 -52 -11 -8 6 -6 1 5 -11 11 -13 15
-23 10 -22 -21 5 -36 -1 -30 -10 4 -6 11 -7 17 -4 7 4 8 2 4 -4 -8 -13 -36 -5
-36 10 0 6 -8 7 -17 3 -10 -4 -24 -8 -30 -8 -17 0 -16 -2 4 -18 9 -8 14 -9 10
-3 -4 7 0 14 8 18 18 6 20 -5 4 -21 -6 -6 -19 -9 -28 -6 -12 3 -11 1 3 -11 11
-9 15 -16 9 -16 -7 0 -19 8 -29 17 -16 17 -17 16 -12 -9 4 -23 3 -26 -12 -18
-18 9 -40 -4 -40 -25 0 -5 8 -1 16 10 10 12 15 14 12 5 -2 -8 -23 -24 -46 -36
-23 -11 -38 -25 -34 -30 4 -4 -1 -2 -11 5 -9 8 -20 11 -24 7 -3 -3 -2 -6 4 -6
6 0 13 -7 17 -15 3 -8 0 -14 -7 -12 -7 1 -11 -3 -10 -9 1 -7 -10 -10 -27 -9
-35 3 -36 2 -12 -21 16 -17 16 -18 -1 -11 -10 4 -23 7 -28 7 -6 0 -7 5 -3 12
4 7 3 8 -5 4 -6 -4 -8 -12 -5 -18 4 -6 1 -9 -7 -6 -16 5 -61 -31 -53 -44 3 -4
2 -13 -2 -20 -5 -8 -11 -6 -19 6 -11 14 -13 15 -18 1 -4 -8 -21 -24 -39 -36
-18 -12 -25 -19 -16 -16 19 7 33 -19 16 -29 -7 -5 -8 -3 -3 5 5 9 -1 11 -25 7
-35 -5 -62 -23 -35 -23 8 0 15 3 15 7 0 4 7 7 16 7 14 0 14 -2 -2 -14 -10 -7
-22 -13 -27 -13 -5 0 -3 -8 4 -17 13 -15 12 -15 -12 0 -27 18 -41 14 -32 -8 2
-8 12 -11 21 -8 9 3 4 -4 -11 -17 -22 -17 -31 -20 -40 -11 -9 9 -8 11 4 6 23
-9 32 10 14 25 -13 11 -14 10 -9 -5 4 -11 3 -16 -2 -13 -5 4 -18 -1 -29 -9
-15 -12 -16 -14 -3 -10 9 3 19 0 22 -8 3 -10 0 -12 -11 -8 -12 5 -14 3 -8 -8
7 -11 6 -12 -6 -2 -13 11 -20 9 -37 -10 -12 -13 -19 -26 -16 -30 11 -10 -16
-36 -31 -31 -7 3 -16 0 -21 -7 -4 -7 -3 -10 3 -6 6 4 13 0 16 -8 5 -11 1 -12
-18 -5 -21 8 -23 6 -20 -11 3 -16 1 -18 -9 -10 -11 9 -13 6 -12 -11 1 -17 -4
-22 -18 -20 -11 2 -15 -1 -11 -7 11 -19 -5 -33 -23 -19 -12 10 -14 10 -8 1 7
-12 -5 -18 -28 -14 -5 1 -4 -5 4 -13 9 -12 9 -16 1 -16 -7 0 -9 -5 -5 -12 5
-8 0 -7 -11 2 -17 14 -18 14 -6 -8 6 -12 8 -22 4 -21 -21 4 -33 -2 -27 -13 4
-7 3 -8 -4 -4 -7 4 -12 2 -12 -3 0 -6 -3 -10 -8 -9 -4 2 -18 -5 -32 -15 -13
-9 -19 -17 -13 -17 6 0 14 -7 17 -16 3 -8 2 -13 -3 -9 -5 3 -11 2 -14 -2 -2
-5 -3 -3 -1 2 1 6 -8 12 -19 13 -12 0 -17 -2 -12 -6 23 -15 10 -37 -20 -35
-25 2 -27 0 -12 -8 9 -5 17 -18 17 -27 0 -14 -2 -14 -9 -3 -10 15 -31 7 -31
-12 0 -7 4 -6 11 3 9 13 10 13 6 0 -2 -8 -10 -16 -18 -16 -8 -1 -18 -2 -23 -3
-5 0 -4 -7 2 -14 7 -8 6 -18 -5 -32 -12 -16 -14 -16 -10 -3 3 10 1 20 -5 24
-7 4 -8 3 -4 -4 4 -7 2 -12 -4 -12 -6 0 -8 -4 -5 -10 3 -5 1 -10 -6 -10 -7 0
-9 -8 -6 -21 4 -17 3 -18 -9 -8 -12 10 -13 9 -7 -7 6 -17 5 -18 -12 -4 -17 14
-18 14 -6 -8 11 -20 9 -23 -14 -32 -23 -9 -29 -19 -26 -46 1 -6 -10 -10 -24
-9 -22 3 -24 1 -14 -17 10 -18 9 -20 -6 -14 -15 5 -16 4 -5 -9 11 -13 10 -14
-4 -9 -9 3 -16 1 -16 -6 0 -6 -5 -8 -12 -4 -6 4 -8 3 -4 -4 3 -5 3 -12 -1 -15
-5 -2 -3 -2 4 -1 7 2 15 -2 19 -8 4 -6 3 -8 -4 -4 -6 3 -17 0 -25 -8 -8 -8
-18 -12 -22 -8 -5 4 -5 1 -1 -5 4 -7 2 -13 -3 -13 -6 0 -11 -5 -11 -11 0 -5 5
-7 12 -3 7 4 8 3 4 -4 -4 -6 -14 -8 -24 -5 -15 6 -16 5 -2 -12 14 -17 14 -18
-10 -5 l-25 13 20 -23 20 -23 -23 12 c-13 7 -26 10 -30 7 -3 -3 0 -6 7 -6 7 0
10 -4 6 -9 -3 -5 3 -12 12 -15 10 -2 1 -3 -20 -1 -27 2 -35 0 -29 -9 12 -16 9
-47 -7 -71 -8 -14 -11 -15 -7 -3 5 19 -20 33 -30 16 -4 -7 -3 -8 4 -4 24 15
11 -26 -16 -54 -26 -25 -30 -26 -40 -11 -10 13 -10 12 -2 -7 12 -25 5 -46 -13
-35 -8 5 -8 2 1 -9 10 -12 9 -18 -3 -28 -9 -7 -14 -19 -11 -26 3 -8 0 -11 -10
-7 -7 3 -14 1 -14 -5 0 -6 6 -13 13 -15 9 -4 9 -6 -1 -6 -7 -1 -10 -6 -6 -13
4 -7 3 -8 -5 -4 -6 4 -9 11 -6 16 3 5 1 11 -4 14 -5 3 -8 -7 -7 -23 1 -16 0
-29 -3 -29 -19 2 -24 -4 -11 -12 12 -8 10 -10 -9 -10 -19 0 -21 -3 -12 -14 9
-11 9 -16 0 -22 -8 -4 -9 -3 -5 4 4 7 1 12 -9 12 -13 0 -14 -4 -5 -20 11 -21
11 -22 -19 -24 -11 0 -23 -5 -28 -10 -5 -5 -3 -6 5 -2 6 4 12 2 12 -4 0 -6 4
-9 9 -6 11 7 8 -21 -4 -31 -4 -4 -5 -3 -1 4 3 6 2 14 -4 18 -6 4 -10 -5 -10
-19 0 -18 -4 -24 -15 -20 -8 4 -15 2 -15 -4 0 -6 6 -13 13 -15 7 -3 5 -6 -5
-6 -10 -1 -17 -7 -15 -13 1 -7 -6 -12 -15 -10 -10 2 -18 -2 -18 -8 0 -6 5 -8
10 -5 18 11 10 -7 -12 -26 -11 -11 -16 -19 -11 -19 16 0 24 -28 11 -36 -6 -4
-8 -3 -5 3 7 11 -22 28 -31 18 -3 -3 1 -5 8 -5 11 0 11 -3 2 -12 -7 -7 -12
-17 -12 -22 0 -6 4 -5 9 3 6 8 8 1 7 -23 -1 -35 -1 -35 -17 -15 -10 14 -19 18
-23 11 -3 -6 -2 -13 4 -17 6 -4 8 -11 5 -16 -4 -5 -1 -9 5 -9 6 0 8 -5 4 -11
-4 -8 -9 -7 -15 2 -4 7 -5 17 -3 21 3 4 0 8 -6 8 -6 0 -8 -11 -6 -26 4 -18 1
-24 -7 -21 -8 3 -14 -4 -14 -15 -2 -17 0 -18 15 -6 15 12 16 11 4 -4 -8 -9
-11 -21 -8 -27 3 -5 -5 -8 -19 -6 -22 2 -23 0 -13 -13 11 -14 10 -15 -7 -8
-11 4 -16 4 -12 0 4 -4 1 -14 -6 -23 -11 -14 -10 -15 7 -1 18 14 19 13 13 -3
-4 -10 -7 -21 -7 -23 0 -3 -6 -2 -13 2 -6 4 -9 4 -5 -1 4 -4 2 -15 -5 -23 -9
-13 -9 -14 1 -8 6 4 12 2 12 -3 0 -6 -7 -11 -16 -11 -14 0 -14 -3 -4 -15 11
-13 10 -14 -6 -8 -15 5 -17 4 -8 -8 5 -8 9 -20 8 -26 -1 -7 -2 -19 -3 -25 -1
-9 -4 -9 -11 2 -5 9 -5 19 1 26 6 8 4 14 -6 18 -10 3 -13 2 -10 -5 4 -5 2 -15
-3 -22 -5 -7 -9 -29 -8 -49 1 -20 -2 -34 -6 -32 -5 3 -5 10 -2 16 4 7 2 8 -4
4 -6 -4 -8 -14 -5 -23 4 -9 2 -14 -3 -10 -6 3 -16 2 -23 -2 -10 -6 -9 -10 4
-14 10 -5 14 -3 9 5 -4 7 -3 8 5 4 6 -4 9 -12 5 -17 -3 -5 -10 -6 -16 -3 -7 5
-9 1 -5 -9 3 -10 2 -17 -3 -17 -6 0 -10 -7 -10 -15 0 -8 5 -15 12 -15 6 0 9
-3 6 -6 -4 -3 -15 -1 -26 5 -16 9 -19 7 -17 -12 2 -12 5 -29 6 -37 2 -8 -2
-14 -8 -13 -7 2 -13 -4 -13 -13 0 -9 -5 -12 -12 -8 -7 4 -10 4 -6 0 4 -5 3
-19 -2 -32 -7 -17 -5 -27 6 -39 10 -10 11 -15 3 -15 -8 0 -8 -5 2 -17 8 -9 9
-14 2 -10 -6 4 -13 4 -16 0 -2 -5 -3 -3 -1 3 5 24 -12 33 -25 13 -7 -12 -8
-18 -2 -14 16 9 13 -17 -4 -42 -13 -19 -13 -23 0 -36 13 -13 13 -16 -1 -21
-10 -4 -13 -2 -8 6 4 7 3 8 -4 4 -6 -4 -9 -13 -6 -20 3 -8 1 -17 -5 -21 -8 -4
-6 -16 5 -38 15 -32 15 -32 -4 -9 -17 22 -19 22 -32 7 -7 -9 -9 -15 -4 -14 22
4 24 -2 10 -23 -9 -12 -16 -27 -16 -33 0 -5 5 -3 10 5 8 12 9 10 7 -9 -2 -14
-10 -27 -18 -29 -11 -3 -11 -1 1 8 12 9 12 11 1 8 -8 -2 -15 -12 -17 -21 -1
-9 1 -15 5 -12 5 2 13 -8 20 -23 11 -25 10 -26 -4 -8 -10 13 -15 15 -15 6 0
-9 -5 -7 -15 6 -14 18 -15 17 -4 -8 7 -15 16 -25 22 -21 6 3 7 1 3 -6 -6 -9
-11 -9 -22 0 -12 10 -13 9 -8 -6 6 -14 4 -16 -6 -10 -8 5 -11 4 -6 -3 3 -6 16
-9 28 -7 11 3 17 1 14 -3 -4 -4 -13 -7 -19 -7 -7 0 -11 -9 -9 -19 2 -11 -1
-15 -7 -11 -6 3 -9 0 -6 -7 10 -28 12 -87 2 -85 -10 2 -15 -15 -20 -85 -2 -26
-9 -54 -15 -61 -7 -8 -9 -17 -5 -21 4 -4 -3 -16 -17 -28 -14 -11 -19 -17 -12
-13 8 4 12 -1 12 -14 0 -12 5 -21 12 -21 6 0 8 -3 4 -7 -4 -5 -14 0 -21 11
-13 18 -14 17 -12 -3 1 -11 5 -21 10 -21 4 0 5 -5 2 -10 -4 -6 -11 -7 -17 -4
-7 4 -8 2 -4 -5 4 -6 12 -9 17 -6 5 4 9 1 9 -4 0 -6 -10 -11 -22 -11 -18 0
-20 -2 -8 -9 8 -6 17 -8 20 -6 4 2 7 -2 7 -10 0 -8 -5 -11 -11 -7 -25 15 -37
9 -17 -9 27 -26 27 -33 -2 -18 -21 11 -21 11 3 -16 l25 -28 -24 13 c-13 6 -21
7 -17 2 3 -6 3 -12 -1 -15 -5 -2 -3 -3 3 -1 11 2 12 -71 1 -82 -4 -4 1 -17 10
-28 17 -20 17 -20 1 -7 -13 10 -18 10 -18 2 0 -7 -6 -9 -12 -6 -7 4 -5 0 4 -8
25 -20 22 -30 -3 -16 -21 11 -21 10 -6 -11 11 -16 13 -28 7 -40 -5 -10 -6 -20
-2 -24 3 -4 -2 -4 -13 -1 -15 5 -14 3 4 -8 20 -12 21 -15 7 -20 -9 -4 -16 -1
-16 5 0 6 -2 9 -5 6 -3 -3 -2 -13 1 -22 5 -14 9 -15 15 -4 6 9 8 6 6 -10 -1
-12 -6 -21 -13 -18 -7 3 -10 -7 -7 -29 2 -19 -1 -37 -7 -40 -8 -5 -7 -12 2
-22 7 -9 12 -18 11 -20 -2 -1 -3 -4 -2 -5 6 -21 5 -37 -2 -32 -5 3 -7 10 -4
15 4 5 1 9 -4 9 -13 0 -14 -17 -2 -25 5 -3 7 -18 4 -33 -3 -15 -6 -40 -7 -55
0 -15 -8 -32 -16 -37 -8 -5 -10 -10 -5 -10 6 0 16 5 23 12 9 9 12 9 12 -1 0
-11 3 -11 18 0 15 13 16 12 3 -3 -7 -10 -17 -15 -22 -12 -5 3 -10 2 -10 -3 -7
-53 -7 -73 1 -78 5 -3 7 0 4 8 -3 8 -1 17 4 21 7 4 9 -33 2 -41 -7 -9 -5 -30
4 -43 10 -13 9 -13 -6 -1 -16 12 -18 11 -18 -3 0 -9 -5 -16 -11 -16 -8 0 -8
-5 1 -15 9 -11 10 -19 1 -28 -8 -10 -7 -14 4 -14 8 0 12 3 10 7 -2 3 6 7 18 7
17 2 18 0 7 -7 -10 -6 -14 -28 -14 -75 -1 -47 -5 -68 -16 -75 -8 -5 -10 -10
-5 -10 6 0 11 -9 12 -20 1 -13 -2 -18 -10 -13 -7 3 -4 -3 5 -14 19 -20 24 -38
10 -29 -5 3 -9 -1 -9 -9 0 -8 2 -13 5 -10 5 5 32 -20 32 -31 0 -3 -6 -2 -12 3
-9 7 -18 4 -30 -8 -16 -17 -16 -18 2 -16 10 1 16 5 14 9 -9 13 3 9 15 -6 9
-11 9 -16 0 -22 -8 -5 -9 -3 -4 6 5 8 4 11 -2 7 -13 -8 -4 -57 10 -57 6 0 2
-7 -10 -15 -18 -13 -20 -18 -10 -39 7 -13 16 -22 21 -19 5 4 6 1 2 -6 -5 -7
-15 -10 -23 -7 -8 3 -11 1 -8 -4 3 -6 12 -10 19 -10 12 0 13 -14 7 -53 0 -5
-5 -5 -11 -2 -6 4 -7 -1 -3 -11 6 -16 7 -16 19 1 12 16 13 16 11 -3 0 -11 -5
-20 -10 -19 -13 3 -26 -48 -17 -63 4 -7 14 -9 21 -6 9 5 8 2 -1 -6 -19 -16
-19 -33 -2 -50 15 -15 16 -32 0 -22 -7 4 -8 3 -4 -5 4 -6 13 -8 19 -4 7 4 5
-2 -3 -12 -14 -17 -13 -18 5 -11 16 6 18 5 8 -5 -15 -15 -17 -33 -4 -24 5 3
13 0 17 -6 4 -7 3 -9 -4 -5 -17 10 -27 -16 -10 -28 13 -10 13 -13 1 -25 -8 -7
-12 -16 -8 -19 3 -4 11 0 16 8 9 13 10 12 6 -2 -3 -9 -3 -19 1 -21 4 -2 1 -2
-5 -1 -7 2 -12 0 -12 -4 3 -21 -2 -32 -13 -26 -10 6 -10 4 -1 -6 11 -12 15
-11 26 5 11 14 16 15 22 5 5 -9 4 -11 -3 -6 -7 4 -12 0 -12 -10 0 -9 -8 -23
-18 -31 -9 -8 -11 -11 -3 -7 8 4 25 8 38 10 19 2 22 0 13 -11 -6 -8 -17 -13
-23 -11 -7 1 -9 1 -4 -1 4 -3 4 -10 1 -15 -4 -6 -3 -8 2 -5 6 3 16 -4 23 -16
11 -18 11 -20 0 -10 -17 17 -26 16 -26 -2 0 -8 3 -13 6 -11 3 2 13 -3 21 -12
13 -14 12 -15 -3 -9 -9 3 -19 2 -22 -3 -4 -6 0 -10 8 -10 8 0 18 -7 21 -16 5
-14 4 -15 -9 -4 -26 22 -16 2 12 -24 22 -21 25 -28 15 -38 -11 -11 -12 -10 -7
3 4 10 1 20 -6 25 -8 5 -10 3 -4 -6 4 -7 2 -16 -5 -20 -9 -6 -6 -10 9 -15 18
-6 20 -9 10 -22 -11 -12 -10 -14 6 -11 14 2 20 -3 21 -19 1 -13 3 -26 4 -30 2
-5 4 -12 5 -18 2 -5 4 -12 5 -15 1 -3 3 -17 4 -32 1 -21 -1 -24 -11 -16 -10 8
-12 7 -7 -6 3 -9 10 -16 15 -16 11 0 8 -53 -4 -61 -5 -3 -2 -9 6 -12 11 -4 14
1 12 19 -1 13 1 26 5 29 11 7 7 -60 -4 -67 -7 -5 -4 -8 7 -8 9 0 17 -5 17 -11
0 -5 -4 -8 -9 -4 -5 3 -13 0 -17 -6 -4 -8 -3 -9 4 -5 7 4 12 2 12 -4 0 -6 4
-8 10 -5 6 4 7 -1 3 -12 -3 -10 -3 -15 2 -11 10 9 35 -10 35 -26 0 -6 -5 -3
-11 7 -6 9 -15 15 -21 11 -7 -4 -6 -9 2 -14 6 -4 14 -22 16 -40 4 -23 2 -30
-6 -25 -8 5 -7 0 1 -13 7 -12 16 -19 20 -17 3 3 6 -7 6 -21 0 -15 6 -30 14
-34 10 -7 10 -12 1 -23 -10 -11 -6 -20 18 -46 17 -17 26 -31 21 -31 -6 0 -13
4 -16 10 -3 5 -12 10 -18 9 -9 0 -8 -2 1 -6 6 -2 10 -9 6 -14 -3 -5 -2 -9 3
-8 22 4 33 -3 33 -18 0 -15 -2 -16 -10 -3 -7 12 -9 10 -8 -7 2 -15 8 -20 20
-18 10 2 16 0 13 -5 -3 -4 1 -11 7 -14 7 -3 2 -3 -12 0 -14 3 -20 2 -14 -3 6
-4 10 -16 8 -26 -1 -9 2 -14 8 -11 5 3 9 -2 8 -12 -4 -36 0 -46 15 -40 10 4
15 -1 15 -15 0 -11 -4 -18 -9 -14 -5 3 -12 2 -15 -3 -2 -4 4 -9 15 -9 10 -1
19 3 19 8 0 6 4 7 10 4 6 -4 5 -11 -3 -19 -6 -8 -15 -12 -19 -9 -4 2 -5 -4 -1
-13 4 -11 8 -13 11 -6 2 7 10 12 19 12 12 0 12 -2 -1 -16 -9 -8 -16 -21 -16
-27 0 -7 5 -4 11 6 5 9 14 17 19 17 6 0 10 -8 10 -17 0 -15 -2 -16 -10 -3 -8
12 -9 9 -8 -12 2 -20 5 -24 14 -17 9 8 11 5 7 -9 -3 -12 5 -30 21 -46 21 -23
26 -56 9 -56 -3 0 -3 6 0 14 4 9 -5 21 -21 31 -26 16 -27 16 -6 -2 11 -10 19
-23 17 -29 -2 -6 4 -17 14 -25 9 -8 14 -9 10 -2 -4 6 -3 14 2 17 5 4 8 -5 6
-19 -1 -14 2 -25 6 -25 5 0 9 5 9 12 0 6 2 9 5 6 3 -3 1 -17 -4 -32 -7 -18 -7
-26 0 -26 6 0 8 -4 4 -9 -3 -6 7 -8 22 -5 l28 4 -25 -15 -25 -14 23 -1 c13 0
21 -4 17 -10 -3 -5 -13 -6 -22 -3 -15 6 -16 5 -3 -9 14 -15 17 -15 35 0 11 9
14 10 7 2 -14 -16 -16 -46 -3 -54 5 -4 8 2 7 11 -2 10 -1 12 1 5 3 -7 10 -9
16 -5 8 4 7 1 -1 -9 -15 -18 0 -34 21 -22 9 5 9 4 0 -6 -10 -11 -17 -10 -40 4
-28 17 -28 17 -6 -2 13 -12 18 -23 13 -28 -6 -6 -1 -10 12 -11 18 -2 20 0 8 7
-13 8 -12 10 3 10 22 0 22 -16 0 -29 -15 -9 -15 -10 -3 -11 9 0 22 6 30 13 8
6 7 3 -2 -8 -13 -15 -14 -24 -7 -35 9 -12 10 -12 5 3 -3 10 -2 16 3 13 5 -3
11 -19 15 -36 3 -17 10 -29 15 -26 4 3 17 -4 27 -15 14 -15 15 -20 4 -17 -9 2
-14 -3 -11 -12 2 -8 4 -20 4 -27 0 -7 4 -10 9 -7 5 3 6 9 3 14 -3 5 0 12 6 16
8 4 9 3 5 -4 -4 -7 -2 -12 3 -12 6 0 11 -5 11 -11 0 -5 -4 -7 -10 -4 -5 3 -10
-1 -10 -10 0 -11 5 -15 14 -12 19 8 42 -18 25 -29 -7 -4 -9 -3 -5 4 3 6 2 13
-4 17 -5 3 -10 -3 -10 -14 0 -14 6 -21 20 -21 17 0 19 -3 10 -19 -7 -13 -7
-20 1 -23 5 -2 11 -11 13 -21 1 -9 8 -23 16 -30 7 -6 10 -7 7 -1 -3 6 -1 11 6
11 7 0 13 -8 13 -18 0 -9 -5 -16 -11 -15 -5 2 -7 1 -2 -1 4 -3 4 -9 1 -15 -4
-7 0 -7 13 0 16 9 19 7 20 -11 2 -17 0 -19 -7 -7 -6 9 -10 10 -10 3 0 -19 20
-26 26 -9 3 9 11 16 17 16 7 0 7 -4 -1 -12 -17 -17 -15 -39 3 -32 11 5 13 2 8
-12 -5 -13 -3 -15 8 -9 11 6 12 5 2 -6 -7 -7 -13 -18 -13 -23 0 -6 5 -4 10 4
6 9 10 10 10 3 0 -6 8 -14 18 -16 15 -4 15 -5 1 -6 -9 0 -20 -8 -23 -17 -5
-14 -4 -15 8 -5 7 6 22 8 31 4 14 -5 16 -3 10 8 -5 8 -4 11 0 6 5 -4 10 -14
11 -22 2 -11 -2 -12 -16 -5 -13 7 -21 7 -26 -2 -4 -7 -3 -8 4 -4 7 4 19 -6 30
-23 10 -17 22 -28 25 -24 4 3 7 -5 7 -20 0 -15 9 -32 21 -41 15 -10 19 -20 15
-33 -4 -9 -4 -14 0 -10 12 11 33 -13 27 -31 -4 -15 -3 -15 6 -2 7 10 11 11 11
3 0 -7 7 -13 15 -13 13 0 14 -4 4 -22 -12 -22 -11 -22 6 -8 11 9 16 10 11 2
-4 -7 -1 -15 8 -18 24 -9 19 -23 -5 -19 -12 3 -19 1 -15 -2 12 -12 46 -13 46
-1 0 6 3 8 6 5 4 -4 2 -13 -5 -21 -9 -11 -8 -17 3 -29 8 -8 12 -18 8 -22 -4
-4 -2 -6 3 -5 21 5 36 0 30 -10 -3 -5 -1 -10 5 -10 6 0 8 -5 4 -12 -6 -10 -5
-10 7 -1 13 10 19 10 35 -3 18 -14 18 -15 -4 -4 -18 9 -22 8 -22 -5 0 -9 4
-13 10 -10 5 3 10 1 10 -5 0 -7 7 -10 15 -6 17 6 35 -22 27 -43 -3 -9 0 -12
10 -8 8 3 23 -4 33 -15 15 -18 15 -20 1 -15 -17 7 -22 -8 -6 -18 6 -4 8 -10 5
-15 -3 -4 4 -6 15 -3 21 6 28 -15 10 -33 -6 -6 -3 -10 9 -10 11 0 18 4 15 7
-2 4 1 11 7 15 8 4 9 3 5 -4 -4 -7 -2 -12 5 -12 10 0 10 -3 1 -12 -7 -7 -12
-17 -12 -22 0 -6 5 -4 10 4 7 11 10 11 10 2 0 -8 5 -10 13 -6 9 6 9 5 0 -7
-10 -13 -10 -16 2 -16 8 0 15 5 15 10 0 6 3 8 6 5 3 -4 1 -16 -6 -27 -6 -12
-7 -20 -3 -19 4 1 19 -2 32 -6 18 -6 21 -10 10 -17 -11 -7 -11 -9 3 -9 9 0 18
3 21 8 2 4 3 2 1 -4 -1 -6 2 -17 7 -23 6 -8 5 -8 -3 -1 -7 6 -16 10 -21 10 -5
0 1 -8 14 -19 13 -10 30 -16 39 -13 13 5 13 3 1 -11 -8 -10 -11 -20 -7 -24 3
-3 6 -2 6 4 0 6 7 14 16 17 8 3 12 2 9 -4 -3 -5 3 -14 14 -20 12 -6 18 -16 15
-25 -4 -8 -2 -15 4 -15 6 0 12 5 14 12 3 7 7 5 11 -6 4 -10 3 -15 -3 -11 -6 3
-10 1 -10 -4 0 -6 9 -11 19 -11 19 0 33 -21 27 -42 -1 -7 -1 -10 1 -5 3 4 9 7
14 7 6 0 7 -4 4 -10 -3 -5 -1 -10 5 -10 6 0 8 -5 4 -12 -5 -7 -3 -8 7 -2 22
14 36 13 36 -2 0 -10 -4 -11 -14 -2 -11 8 -12 7 -7 -6 3 -9 10 -16 16 -16 5 0
7 -4 4 -9 -3 -5 2 -8 12 -7 10 0 17 -6 16 -15 -1 -9 5 -16 12 -16 7 0 10 5 7
10 -4 6 -1 7 6 3 7 -5 10 -14 7 -22 -3 -7 0 -16 6 -20 7 -4 8 -3 4 4 -4 7 -1
12 9 12 10 0 13 5 9 13 -4 6 -3 8 1 4 12 -10 15 -38 4 -32 -5 4 -6 -1 -3 -9 3
-8 12 -12 20 -9 10 4 12 0 7 -13 -6 -17 -5 -18 12 -4 11 9 16 10 11 3 -4 -8 2
-17 18 -25 24 -10 30 -22 29 -55 -1 -7 3 -10 9 -7 5 3 6 15 4 27 -4 13 0 9 9
-8 8 -18 14 -23 15 -13 0 9 5 20 11 24 7 4 9 0 5 -12 -3 -11 -1 -26 4 -34 9
-13 10 -13 11 0 0 8 4 4 8 -10 5 -16 13 -24 24 -22 12 2 17 -4 18 -20 0 -13 3
-17 6 -10 6 15 33 16 33 1 0 -5 -4 -7 -10 -4 -5 3 -10 1 -10 -6 0 -6 8 -9 18
-7 11 3 19 0 19 -8 0 -7 -4 -11 -8 -8 -4 2 -10 0 -13 -5 -7 -10 13 -9 31 2 7
4 14 -1 18 -14 4 -11 12 -18 19 -16 6 3 20 -1 31 -9 10 -8 14 -14 9 -14 -6 0
-16 6 -23 13 -10 10 -11 8 -5 -6 5 -13 14 -17 30 -14 13 2 29 -2 36 -10 6 -8
16 -12 23 -9 6 2 12 -2 12 -9 0 -7 -7 -12 -15 -11 -8 0 -16 -7 -18 -18 -2 -14
0 -16 9 -7 12 12 38 15 36 4 -1 -5 -1 -15 0 -23 1 -13 2 -13 11 0 9 13 11 13
20 0 5 -8 10 -11 10 -6 0 6 6 1 14 -9 8 -11 12 -24 9 -29 -4 -5 -1 -6 6 -2 15
10 53 -23 44 -38 -3 -6 -3 -8 2 -4 4 4 17 2 29 -3 11 -6 5 2 -14 19 -19 16
-32 33 -28 38 5 4 8 2 8 -5 0 -7 5 -9 12 -5 7 4 8 3 4 -4 -4 -7 3 -17 18 -24
22 -10 30 -24 28 -49 -1 -3 6 -6 14 -6 10 0 11 4 4 11 -5 5 -10 14 -10 20 0 5
9 -1 20 -14 11 -12 18 -26 15 -30 -4 -7 6 -9 59 -12 19 -1 34 -5 33 -9 -1 -4
1 -6 4 -5 4 0 16 -7 26 -17 11 -9 23 -14 28 -10 4 5 5 2 1 -5 -6 -10 -11 -10
-22 -1 -10 8 -14 8 -14 0 0 -6 5 -11 11 -11 5 0 8 -4 5 -8 -3 -5 1 -9 9 -9 8
0 12 4 9 9 -3 4 -1 8 4 8 5 0 14 -10 20 -23 6 -12 11 -16 11 -9 1 6 6 12 12
12 5 0 7 -5 3 -12 -5 -7 -1 -9 13 -6 15 4 20 1 19 -11 -1 -11 6 -15 23 -13 19
2 22 -1 18 -19 -4 -17 -3 -19 6 -10 16 16 37 14 37 -4 0 -8 -5 -15 -11 -15 -5
0 -7 5 -3 12 5 7 3 8 -5 3 -9 -5 -10 -10 -2 -18 8 -8 14 -8 23 1 15 15 38 16
38 1 0 -5 -4 -8 -9 -4 -5 3 -12 1 -16 -4 -3 -6 4 -8 16 -6 15 3 19 0 15 -10
-3 -10 0 -12 11 -8 12 5 14 3 8 -7 -5 -9 -4 -11 4 -6 9 6 9 11 1 21 -8 10 -8
15 2 21 7 4 10 4 6 -1 -12 -13 11 -34 30 -28 15 4 15 3 2 -6 -16 -11 -11 -14
32 -14 10 0 15 -4 12 -8 -3 -5 -10 -6 -16 -3 -7 4 -8 2 -4 -4 5 -9 13 -9 29 0
21 11 21 10 7 -7 -12 -15 -12 -17 -1 -10 11 6 13 4 7 -10 -7 -18 -6 -18 13 -1
19 17 19 17 15 -6 -5 -23 -5 -23 10 2 8 14 15 19 16 12 0 -7 5 -10 12 -6 7 4
8 3 4 -4 -4 -7 -2 -12 5 -12 7 0 9 -3 6 -6 -4 -4 -13 -1 -22 6 -12 10 -15 10
-15 -2 0 -8 12 -15 31 -16 18 -2 28 2 24 8 -3 6 0 7 9 4 9 -3 16 -10 16 -16 0
-5 5 -6 12 -2 7 4 8 3 4 -5 -6 -9 -11 -9 -22 0 -8 6 -14 7 -14 2 0 -5 12 -15
26 -21 14 -7 23 -16 20 -21 -4 -5 5 -4 18 2 13 7 22 16 19 22 -3 5 6 -1 19
-15 14 -14 23 -29 20 -35 -3 -5 3 -3 13 5 11 9 16 10 11 3 -4 -8 -1 -13 9 -13
9 0 13 5 10 10 -3 6 -1 10 5 10 7 0 10 -7 6 -15 -3 -9 0 -15 10 -15 9 0 12 5
8 12 -5 7 -3 8 6 3 10 -6 10 -11 -3 -20 -20 -14 -23 -30 -4 -18 6 4 26 8 42 8
19 0 29 5 27 13 -1 8 2 11 8 7 8 -5 7 -11 -1 -21 -9 -11 -9 -14 0 -14 7 0 9
-4 6 -10 -3 -5 -1 -10 5 -10 6 0 8 -5 4 -12 -5 -7 -3 -8 7 -3 18 12 49 14 49
4 0 -5 7 -5 17 -2 10 4 14 2 10 -4 -4 -6 0 -16 8 -23 8 -7 15 -9 15 -5 0 4 6
2 14 -4 11 -10 17 -8 25 6 6 11 11 13 11 5 0 -8 5 -10 13 -6 9 6 9 5 0 -7 -11
-13 -8 -15 18 -11 21 3 29 1 27 -9 -3 -16 33 -13 43 3 4 6 10 0 14 -12 5 -15
2 -25 -6 -31 -8 -5 -9 -9 -3 -9 17 0 35 25 26 36 -4 5 2 1 14 -9 11 -9 24 -14
27 -10 4 3 7 1 7 -5 0 -6 7 -9 15 -6 11 5 13 2 8 -12 -4 -11 -3 -15 5 -10 6 3
15 -2 21 -11 6 -10 11 -12 11 -5 0 13 40 17 40 4 0 -13 33 -11 49 2 12 9 13 8
6 -3 -6 -11 -4 -13 10 -7 15 5 16 4 5 -9 -7 -9 -10 -18 -6 -22 3 -3 6 -1 6 6
0 8 5 9 19 1 14 -7 22 -7 27 2 4 6 3 8 -4 4 -6 -3 -13 -3 -16 2 -3 5 2 9 10 9
9 0 21 -8 27 -18 8 -13 16 -15 35 -8 26 10 46 3 36 -12 -3 -5 -15 -7 -27 -3
-18 5 -20 4 -10 -7 10 -10 21 -10 48 -2 19 6 33 8 31 4 -3 -4 -1 -13 5 -21 7
-13 9 -12 9 2 0 9 6 20 13 24 6 4 9 4 5 0 -3 -4 3 -18 14 -31 16 -18 23 -21
33 -12 7 7 11 15 9 18 -2 3 4 6 12 6 10 0 11 -4 4 -11 -14 -14 -13 -23 5 -23
8 0 12 4 9 8 -2 4 1 11 7 15 8 5 9 3 4 -6 -5 -9 -2 -10 12 -6 14 5 23 0 32
-16 7 -14 10 -16 6 -4 -4 13 -1 17 10 12 8 -3 15 0 15 6 0 6 3 8 6 5 4 -4 2
-12 -4 -20 -9 -10 -5 -13 19 -11 23 2 27 -1 20 -10 -15 -17 22 -14 43 3 14 12
16 11 10 -4 -5 -12 -4 -16 3 -12 6 4 14 1 16 -5 4 -10 6 -10 6 0 1 7 6 10 13
6 6 -4 8 -3 5 2 -3 6 -1 16 4 24 8 12 9 11 7 -5 -3 -16 3 -20 32 -20 35 -1 49
-10 34 -23 -4 -4 -4 -1 1 7 5 10 4 12 -4 7 -16 -10 -4 -26 14 -19 9 3 23 -1
33 -8 15 -13 16 -12 4 3 -12 15 -11 17 7 15 11 0 18 -4 15 -8 -2 -4 1 -11 7
-15 7 -4 9 -3 6 2 -3 6 -2 16 4 24 7 12 9 10 9 -7 0 -17 5 -22 20 -20 11 2 23
6 26 10 11 11 42 8 50 -5 5 -7 3 -8 -7 -3 -12 7 -12 6 -1 -7 7 -9 21 -15 30
-13 9 1 22 -2 29 -7 7 -5 14 -5 18 2 3 6 10 8 15 5 5 -3 11 -1 15 5 8 13 25
13 25 -1 0 -5 -5 -7 -12 -3 -6 4 -8 3 -5 -4 9 -13 47 -4 47 12 0 8 2 8 8 0 4
-6 18 -17 32 -24 23 -12 24 -12 11 4 -12 14 -12 16 4 10 10 -4 21 -1 27 7 8
11 9 10 4 -3 -6 -21 5 -23 23 -5 10 10 12 9 9 -2 -2 -7 3 -16 10 -18 6 -3 10
1 9 9 -2 7 -2 10 0 6 2 -3 16 -4 30 -2 16 3 30 -1 38 -12 9 -13 14 -14 20 -4
6 9 4 11 -6 5 -8 -5 -11 -5 -7 0 4 4 3 13 -2 20 -7 8 -5 12 5 12 7 0 14 -3 13
-6 -2 -19 4 -22 19 -10 11 10 14 10 9 2 -4 -8 -2 -13 4 -13 6 0 9 -4 5 -9 -3
-5 0 -13 7 -17 7 -4 10 -4 6 1 -4 4 -1 14 7 21 18 19 27 18 23 -2 -2 -10 5
-18 15 -19 9 -2 15 1 11 6 -6 11 9 12 20 2 4 -4 18 -8 32 -9 20 -1 23 3 19 20
-3 12 -2 15 1 8 5 -10 9 -10 22 0 10 7 14 9 10 4 -4 -5 -1 -15 7 -22 15 -16
29 -19 20 -5 -3 6 7 9 22 7 16 -1 27 -8 25 -15 -1 -7 2 -10 8 -6 6 3 8 11 5
16 -4 5 -1 9 4 9 6 0 11 -5 11 -12 0 -6 7 -3 16 8 8 10 12 13 8 5 -5 -10 -1
-11 16 -6 15 5 20 4 16 -4 -4 -6 -2 -11 3 -11 6 0 11 5 11 11 0 5 5 7 10 4 6
-3 10 -1 10 4 0 6 5 11 10 11 7 0 6 -8 -1 -22 -11 -20 -10 -21 3 -11 8 7 19 9
23 5 5 -4 5 -1 1 6 -4 7 -2 13 6 13 30 3 71 0 87 -7 27 -12 41 -13 47 -3 3 5
11 6 17 2 18 -11 38 -12 31 -2 -7 12 10 11 22 -1 7 -7 17 -3 32 10 12 12 22
18 22 14 0 -3 6 -1 14 5 11 9 16 9 22 0 5 -8 3 -9 -6 -4 -9 6 -11 4 -6 -4 6
-9 13 -8 28 6 11 10 29 17 39 15 11 -2 19 3 19 10 0 8 4 6 11 -4 12 -22 33
-24 25 -2 -4 10 -2 13 7 7 12 -8 17 -9 38 -12 5 0 8 -5 5 -9 -3 -5 1 -9 9 -9
8 0 13 4 12 8 -1 4 3 6 8 5 6 0 9 -4 8 -7 -1 -3 5 -6 12 -6 11 0 12 4 4 13 -7
8 -6 14 2 20 7 4 9 3 6 -3 -9 -15 18 -24 31 -11 8 8 16 7 29 -3 14 -11 14 -9
-2 10 l-20 24 20 -10 c22 -11 48 -6 40 7 -3 5 0 12 6 16 7 4 10 3 7 -2 -8 -12
12 -29 35 -30 11 -1 16 4 15 13 -2 9 5 17 15 18 9 2 15 -1 11 -6 -3 -5 -11 -6
-17 -3 -7 4 -9 3 -4 -1 4 -5 17 -9 28 -10 15 -1 19 3 16 17 -3 10 -1 21 4 24
5 3 9 2 8 -3 -3 -19 2 -33 12 -33 5 0 8 4 5 9 -8 13 15 19 39 11 25 -9 55 9
48 29 -4 14 -3 14 5 1 8 -10 8 -19 0 -30 -5 -8 3 0 20 18 23 26 30 30 29 15
-1 -10 5 -18 13 -18 8 0 20 -4 26 -7 6 -4 11 -1 11 7 0 7 -8 12 -19 10 -11 -2
-16 0 -12 6 3 6 9 8 12 5 3 -3 13 1 23 10 21 19 40 11 33 -14 -5 -15 -4 -15 9
1 9 10 18 14 21 8 7 -10 31 -9 42 2 4 4 15 7 25 7 10 0 25 11 34 23 15 24 55
31 72 13 4 -4 2 -6 -6 -4 -7 2 -15 -5 -16 -15 -3 -17 -2 -17 14 -3 14 13 20
13 30 3 10 -9 12 -9 9 3 -2 8 3 14 10 12 6 -1 12 5 12 15 0 14 -2 14 -20 -2
-26 -23 -26 -11 -1 14 16 16 20 17 25 5 3 -8 16 -13 28 -13 17 1 18 2 6 6 -21
5 -23 19 -6 29 6 4 9 3 5 -2 -3 -5 5 -14 18 -20 18 -9 22 -8 19 0 -3 7 4 20
15 31 16 14 24 15 35 6 11 -9 15 -9 20 1 3 7 3 2 0 -12 -6 -24 -6 -24 9 -5 8
11 13 23 11 27 -3 4 3 5 12 1 11 -4 15 -3 11 4 -8 13 19 11 30 -2 4 -4 3 -6
-2 -2 -6 3 -19 -1 -30 -9 -10 -8 -14 -14 -8 -14 7 0 15 5 18 10 4 6 10 8 14 5
5 -2 17 2 27 9 12 9 23 11 30 5 7 -5 11 -4 11 6 0 8 -4 12 -9 9 -4 -3 -8 0 -8
5 0 14 17 14 25 1 3 -5 14 -10 23 -9 14 0 13 2 -3 9 -20 9 -20 9 0 9 12 1 26
-4 32 -10 8 -8 13 -7 18 2 5 7 4 10 -2 6 -6 -4 -18 2 -27 12 -13 15 -14 18 -1
18 8 0 12 -4 9 -9 -3 -4 2 -8 11 -8 9 0 14 4 11 8 -3 5 1 9 9 9 8 0 12 -4 9
-8 -2 -4 1 -11 7 -15 7 -4 9 -3 6 3 -4 6 0 17 9 24 13 10 19 10 37 0 21 -14
21 -14 3 14 -10 15 -13 24 -7 20 7 -4 19 -1 27 6 10 8 18 9 25 2 8 -8 7 -13
-2 -18 -8 -6 -10 -4 -4 5 5 8 3 11 -5 8 -20 -6 -24 -27 -6 -24 9 1 19 5 22 9
4 4 13 2 19 -3 9 -8 14 -6 19 5 3 9 10 14 14 11 5 -3 9 1 9 9 0 10 -4 12 -12
5 -8 -6 -12 -6 -12 3 0 7 13 13 30 14 21 0 26 -2 18 -10 -6 -6 -11 -14 -11
-19 0 -4 11 4 25 18 14 14 23 29 20 35 -4 5 2 6 11 2 12 -5 15 -3 9 6 -4 7 5
5 21 -5 15 -11 25 -14 21 -8 -7 12 9 31 28 34 6 1 9 6 8 10 -3 9 23 7 33 -3 4
-3 14 -2 24 3 10 5 19 7 22 5 3 -3 5 2 5 10 0 8 -5 11 -11 7 -15 -9 -39 -12
-31 -4 4 4 11 8 16 8 5 1 10 3 12 4 7 7 57 8 53 1 -3 -4 1 -8 9 -8 8 0 12 4 9
8 -2 4 0 11 6 14 8 5 7 11 -1 21 -15 19 -2 18 17 -1 9 -8 21 -15 27 -14 9 0 8
2 0 6 -20 8 -15 22 7 20 11 -1 20 -6 20 -12 0 -5 4 -4 9 4 6 9 5 25 0 40 -8
22 -7 23 3 10 18 -22 48 -20 48 3 0 10 4 18 9 18 6 0 8 -9 6 -20 -2 -12 0 -18
6 -15 5 4 7 10 4 15 -3 5 4 14 15 20 11 6 17 16 14 22 -4 7 -3 8 4 4 7 -4 20
-2 29 3 13 7 14 10 4 11 -8 0 -12 2 -9 5 8 8 39 -6 33 -15 -7 -11 22 -6 32 5
4 4 3 5 -3 2 -7 -4 -15 1 -18 10 -4 10 -4 14 0 10 4 -4 13 1 21 11 13 15 14
15 10 0 -8 -24 4 -30 25 -12 15 14 16 20 5 32 -8 10 -2 9 18 -4 16 -10 26 -13
22 -6 -8 11 4 17 26 13 4 -1 3 8 -3 20 -7 11 -9 23 -6 27 3 3 6 0 6 -7 0 -7 5
-9 10 -6 6 4 7 12 3 18 -5 9 -3 9 8 1 17 -13 49 -14 49 -2 0 5 4 7 9 4 4 -3
16 3 26 14 19 21 41 28 29 8 -4 -7 -3 -8 4 -4 6 4 9 13 6 21 -4 8 -10 12 -15
9 -5 -3 -6 2 -3 11 6 14 8 14 21 -2 8 -10 12 -13 9 -6 -4 6 -2 14 4 18 5 3 10
1 10 -4 0 -6 5 -11 11 -11 6 0 8 10 5 23 -3 12 -3 16 0 10 10 -22 31 -14 54
20 17 26 20 27 15 8 -6 -21 -5 -22 7 -10 8 7 13 23 11 34 -3 13 -2 16 4 8 10
-15 49 -10 45 6 -1 6 2 11 8 11 5 0 8 6 6 13 -1 6 -1 9 1 5 7 -12 33 -9 33 3
0 5 -5 7 -12 3 -7 -4 -8 -3 -4 5 4 6 12 8 18 5 8 -5 9 -1 4 11 -5 14 -3 15 6
8 13 -10 58 0 58 12 0 4 -4 4 -8 1 -4 -2 -14 -1 -22 5 -11 6 -5 8 17 5 18 -2
30 0 28 4 -3 4 2 11 11 14 10 4 13 2 8 -7 -5 -9 -4 -9 6 0 12 11 11 15 -6 28
-18 14 -17 14 9 5 37 -13 36 -13 30 10 -3 12 0 20 6 20 7 0 9 -4 6 -10 -3 -5
-1 -10 4 -10 6 0 11 5 11 12 0 6 3 8 7 5 3 -4 12 -2 20 5 11 9 11 14 -4 31
-18 20 -18 20 8 3 24 -15 27 -15 43 2 10 12 14 27 10 38 -3 11 -2 15 3 9 14
-18 34 -16 31 2 -2 14 3 18 25 16 15 -1 27 2 27 8 0 6 -4 8 -8 5 -4 -2 -14 -1
-22 4 -10 7 -3 9 22 7 30 -3 35 -1 27 10 -6 7 -16 10 -22 6 -6 -3 -7 -1 -3 5
5 9 13 9 27 2 15 -9 19 -7 19 5 0 9 -5 13 -11 9 -8 -4 -8 0 0 15 13 24 23 28
15 6 -9 -22 36 -10 61 17 20 22 20 22 0 6 -15 -12 -25 -14 -35 -7 -12 8 -11 9
5 7 11 -2 19 2 18 9 -2 7 6 10 21 7 14 -2 30 3 41 16 10 11 21 18 24 15 4 -2
6 9 5 26 -1 16 2 26 8 23 5 -3 7 -13 3 -21 -4 -13 -3 -14 10 -3 10 8 12 17 6
24 -7 8 -4 12 11 13 11 1 29 10 40 20 11 10 22 17 25 15 3 -2 7 -1 10 1 9 10
-21 1 -45 -12 -13 -7 -25 -11 -27 -9 -3 2 16 15 40 28 25 14 45 28 45 32 0 5
8 8 18 8 15 0 15 2 2 11 -12 9 -11 10 7 6 16 -4 20 -1 16 11 -5 11 -3 13 8 7
11 -7 11 -5 -1 10 -8 10 -10 16 -3 12 14 -9 43 2 43 15 0 6 -6 6 -14 -1 -10
-8 -16 -9 -21 -1 -4 6 -1 9 7 8 7 -2 12 2 11 9 -2 7 3 10 11 7 11 -4 14 1 12
20 -2 14 1 23 6 20 5 -3 7 -12 4 -20 -3 -8 -1 -14 4 -14 6 0 10 5 10 11 0 5 4
8 9 5 13 -8 27 15 25 41 -1 15 3 20 14 15 9 -3 13 -1 9 5 -5 7 1 9 15 6 22 -5
22 -5 4 9 -17 13 -16 14 13 12 28 -2 30 0 19 14 -11 13 -11 15 3 10 9 -3 22
-2 30 4 11 8 10 9 -3 4 -10 -3 -18 -1 -18 5 0 6 -5 7 -12 3 -6 -4 -8 -3 -5 4
4 5 16 8 27 5 18 -5 25 5 21 30 -1 5 4 5 10 1 9 -5 10 -2 6 10 -4 9 -3 15 2
12 5 -3 12 1 15 9 3 8 11 14 18 13 7 -2 12 5 10 14 -2 12 2 16 11 12 8 -3 20
2 27 10 7 9 16 13 21 10 5 -3 6 3 2 12 -5 13 -3 15 7 9 9 -5 11 -4 6 4 -4 6
-11 9 -16 6 -4 -3 -6 5 -2 17 3 12 7 17 10 10 2 -6 8 -12 13 -12 5 0 4 10 -2
23 -12 21 -11 21 6 7 17 -14 18 -13 12 4 -5 14 -3 17 8 13 18 -7 30 9 14 19
-8 5 -9 3 -4 -6 5 -9 4 -11 -4 -6 -6 4 -9 12 -5 17 3 5 10 7 15 4 5 -4 9 -1 9
6 0 6 8 9 20 6 11 -3 23 0 27 5 3 7 1 8 -5 4 -7 -4 -12 -2 -12 4 0 6 -4 9 -9
5 -5 -3 -13 0 -17 6 -4 7 -3 9 3 6 6 -4 16 0 23 9 7 8 18 13 24 11 6 -3 17 2
25 10 11 12 11 14 0 12 -28 -3 -49 1 -49 11 0 7 6 7 18 1 20 -11 48 1 38 17
-3 5 1 13 10 16 8 3 12 10 9 16 -3 6 1 13 9 16 9 3 13 11 9 17 -4 6 -1 7 7 2
10 -6 9 -11 -5 -21 -16 -12 -16 -13 3 -11 15 1 19 7 17 25 -2 17 2 22 13 17
13 -5 13 -3 1 11 -13 16 -12 16 7 6 19 -10 21 -9 19 12 -2 13 5 29 16 37 19
14 27 35 9 24 -6 -3 -7 1 -4 9 5 14 8 13 23 -2 9 -10 13 -13 10 -7 -16 28 -18
44 -3 38 17 -6 18 8 2 27 -9 9 -5 8 13 -2 26 -16 26 -16 21 10 -3 15 -9 34
-15 42 -9 12 -8 13 2 3 15 -13 44 -6 35 8 -3 5 -2 9 3 8 18 -3 36 1 30 7 -10
11 13 45 25 38 7 -4 8 -3 4 5 -4 6 -11 9 -16 6 -5 -3 -11 -1 -14 4 -4 5 5 8
18 7 17 -2 23 1 19 10 -3 8 -10 11 -16 7 -5 -3 -7 -1 -4 5 4 5 17 8 30 5 22
-5 22 -5 2 11 -11 10 -14 14 -6 10 10 -5 13 -3 8 9 -4 11 -2 14 9 10 7 -3 14
0 14 6 0 6 -4 11 -10 11 -5 0 -10 5 -10 12 0 6 8 4 19 -6 18 -16 19 -16 17 1
0 11 5 17 14 15 12 -3 13 -1 3 9 -16 16 -17 33 -1 23 7 -5 9 -2 5 9 -4 11 -2
14 7 11 18 -7 30 12 15 22 -8 5 -9 3 -4 -6 5 -9 4 -11 -4 -6 -15 10 -4 27 13
20 9 -4 13 2 11 20 -3 27 18 52 35 41 7 -4 7 2 0 20 -14 38 -12 44 6 15 14
-23 14 -23 9 -2 -4 13 -2 22 5 22 6 0 8 5 5 10 -4 6 -11 7 -17 4 -7 -4 -8 -2
-4 5 4 6 12 9 17 5 6 -3 9 1 7 9 -2 9 2 15 7 14 6 -1 9 -13 8 -27 -2 -18 0
-21 7 -10 5 8 7 17 4 21 -2 4 0 10 5 14 14 8 1 36 -13 28 -6 -3 -2 3 8 15 11
12 25 22 33 22 8 0 11 5 8 10 -3 6 1 13 11 17 14 5 13 8 -7 20 -24 13 -24 13
6 8 27 -4 28 -3 12 9 -16 12 -16 14 -1 20 22 9 26 8 18 -6 -4 -7 -3 -8 5 -4 9
6 9 11 -1 23 -17 21 -18 40 -2 40 11 0 11 -3 1 -16 -11 -14 -10 -14 6 -2 13
11 15 17 6 28 -7 7 -9 16 -5 20 3 3 6 1 6 -5 0 -7 8 -12 18 -11 10 0 12 3 5 6
-15 6 -17 33 -3 33 6 0 10 7 10 15 0 9 -6 12 -17 9 -15 -5 -15 -4 -3 5 11 7
20 5 35 -7 19 -16 19 -16 6 1 -7 9 -10 17 -5 17 5 0 2 5 -6 10 -12 8 -10 10
10 10 14 0 20 4 14 8 -18 11 -13 41 5 34 14 -5 14 -4 1 13 -8 10 -10 16 -5 13
6 -4 15 5 22 18 7 16 8 22 1 17 -7 -3 -8 -1 -4 5 11 18 26 14 26 -5 0 -9 3
-13 7 -10 3 4 6 20 5 36 0 24 3 29 16 24 11 -3 13 -2 5 4 -16 12 -4 63 16 63
10 1 6 6 -11 16 -16 8 -28 17 -28 20 0 2 9 0 21 -7 19 -10 20 -9 14 13 -7 22
-6 22 7 4 13 -17 14 -16 12 13 -2 29 6 36 31 31 5 -1 1 8 -9 19 -11 12 -16 24
-12 28 4 4 12 1 17 -7 9 -13 10 -12 5 2 -3 10 0 20 5 24 6 3 8 15 6 26 -4 12
-1 18 6 15 7 -3 11 -10 9 -16 -1 -7 2 -10 8 -6 7 4 8 11 1 18 -5 7 -11 14 -13
17 -1 3 7 19 19 35 16 23 19 35 12 48 -6 10 -16 14 -22 10 -7 -3 -3 3 7 15 11
12 16 22 11 22 -4 0 -2 7 5 15 7 8 16 13 20 10 5 -3 12 0 16 6 4 8 3 9 -4 5
-7 -4 -12 -2 -12 3 0 6 8 11 18 12 15 0 15 1 -2 8 -18 7 -18 8 4 28 12 12 19
26 16 32 -4 5 -2 13 4 16 8 5 7 12 -2 23 -11 13 -11 14 1 7 11 -6 13 -4 8 8
-4 10 1 21 11 27 14 9 13 10 -8 5 -14 -4 -20 -3 -14 2 6 4 10 16 8 26 -1 9 2
15 6 12 5 -3 12 5 16 17 4 13 12 26 18 30 8 5 7 8 -2 8 -7 0 -10 5 -7 10 4 6
11 7 17 4 7 -5 8 -2 3 5 -11 19 -12 71 -2 78 6 3 7 1 3 -5 -3 -6 -3 -13 2 -16
13 -8 11 28 -2 36 -6 4 0 8 14 8 19 0 22 2 10 9 -8 6 -18 7 -24 4 -5 -3 -6 -1
-2 6 4 6 12 9 17 6 5 -4 9 -1 9 5 0 6 5 8 12 4 7 -4 8 -3 4 5 -4 6 -13 8 -19
4 -9 -5 -9 -3 -1 8 13 18 16 61 3 54 -5 -4 -9 -4 -9 0 0 3 12 10 26 15 21 8
24 13 15 24 -9 11 -9 15 1 19 10 3 8 10 -7 27 -11 13 -14 20 -6 15 11 -6 13
-4 8 8 -4 11 -2 14 7 11 9 -3 13 3 12 18 -1 16 4 22 14 20 12 -3 13 -1 3 9
-15 15 -17 33 -4 24 6 -3 8 4 5 17 -13 61 -14 68 -4 68 6 0 8 -4 5 -10 -3 -5
-2 -10 2 -10 16 0 12 71 -4 77 -10 4 -11 8 -3 13 14 9 21 59 8 66 -5 3 -4 12
3 20 6 8 8 14 4 14 -4 0 -2 7 5 15 10 12 10 15 0 15 -8 0 -10 3 -7 6 4 4 13 2
20 -4 10 -9 14 -8 14 3 0 8 -4 15 -9 15 -5 0 -6 5 -3 10 4 6 11 7 17 4 7 -4 7
0 0 12 -5 11 -7 25 -4 33 3 8 0 11 -7 7 -6 -4 -11 -2 -11 3 0 6 5 11 11 11 5
0 7 5 4 10 -3 6 -2 10 4 10 6 0 8 7 5 15 -4 8 -1 15 7 15 7 0 9 3 6 6 -4 4
-13 1 -22 -6 -13 -11 -14 -10 -9 5 6 14 4 16 -6 10 -9 -5 -11 -4 -6 4 4 6 12
9 17 6 5 -4 9 -2 9 4 0 5 -6 12 -12 14 -8 3 -6 6 4 6 18 1 14 28 -6 44 -6 5
-1 5 12 2 21 -6 22 -5 11 14 -11 16 -16 18 -29 8 -13 -11 -13 -10 -1 6 8 10
20 16 28 13 7 -3 13 -1 13 4 0 9 -14 14 -32 11 -5 0 -8 4 -8 9 0 6 7 10 16 8
11 -2 18 5 20 20 2 12 0 22 -5 22 -6 0 -8 -9 -6 -21 4 -17 2 -19 -11 -9 -10
10 -11 16 -3 26 6 7 7 19 3 26 -5 8 -1 8 11 -2 12 -10 16 -10 11 -2 -4 7 -2
20 6 29 9 12 9 15 1 9 -7 -4 -13 -3 -13 3 0 5 5 13 10 16 8 5 7 11 -1 21 -6 7
-15 11 -20 8 -5 -3 -9 0 -9 6 0 13 32 9 42 -5 5 -6 8 -6 8 2 0 6 -4 15 -10 18
-5 3 -10 11 -10 16 0 6 4 8 8 5 5 -3 9 1 9 9 0 11 -4 12 -13 4 -8 -7 -14 -6
-20 2 -4 7 -3 9 3 6 6 -4 13 0 17 8 3 8 0 17 -6 21 -7 4 -8 3 -4 -4 4 -7 3
-12 -3 -12 -5 0 -9 9 -8 20 1 15 6 19 22 14 14 -4 16 -3 6 4 -7 5 -9 12 -5 14
5 3 4 3 -3 2 -16 -4 -22 17 -11 39 5 11 4 25 -3 40 -12 21 -11 21 6 7 17 -14
18 -14 6 8 -7 13 -17 20 -24 16 -7 -4 -8 -3 -4 1 12 13 37 15 37 2 0 -5 3 -8
6 -5 11 12 -27 57 -44 51 -14 -4 -14 -3 -3 5 10 7 21 7 35 0 18 -10 19 -9 9 4
-9 10 -9 18 -2 25 6 6 5 10 -5 10 -8 0 -13 -4 -10 -9 3 -4 0 -8 -5 -8 -6 0
-11 5 -11 11 0 5 -6 7 -12 3 -8 -4 -10 -3 -5 2 5 5 13 10 18 10 5 1 15 2 22 3
6 1 -1 8 -18 16 -16 7 -25 14 -19 14 15 1 16 61 1 61 -7 0 -6 4 3 10 13 9 13
11 0 20 -12 8 -12 10 -1 10 8 0 11 7 8 20 -3 14 0 20 11 20 17 0 7 15 -11 15
-7 0 -11 9 -9 19 2 13 -1 16 -10 10 -10 -6 -10 -4 1 9 7 9 10 17 5 17 -5 0 0
7 10 15 16 12 17 15 4 15 -17 0 -19 23 -3 37 4 4 5 3 1 -4 -3 -6 -2 -14 3 -17
18 -11 4 27 -15 41 -18 14 -18 15 6 9 22 -6 23 -5 9 6 -13 11 -14 16 -4 25 7
7 15 11 17 10 2 -1 -4 5 -14 15 -18 16 -25 34 -10 24 4 -2 9 4 9 15 1 10 -3
19 -8 19 -6 0 -7 -6 -3 -12 5 -9 2 -9 -9 1 -9 7 -17 19 -16 25 0 6 3 6 6 -2 4
-10 8 -10 19 -1 17 14 9 30 -11 23 -9 -4 -12 0 -8 14 2 11 1 22 -5 26 -5 3 -7
24 -5 47 3 30 1 39 -8 33 -8 -5 -9 -3 -4 6 6 10 11 9 21 -5 12 -16 13 -16 11
3 0 11 -4 20 -7 20 -27 -2 -30 4 -9 22 15 12 18 19 9 18 -8 -2 -14 3 -12 10 1
6 -4 12 -10 12 -9 0 -8 4 2 10 10 7 11 10 3 11 -28 3 -32 4 -40 13 -4 5 -3 6
3 3 7 -4 14 0 18 8 3 8 0 15 -7 16 -7 1 -1 5 13 9 22 7 23 8 4 9 -25 1 -53 28
-29 28 8 0 11 -5 8 -11 -3 -6 0 -5 8 2 12 11 12 14 -1 22 -8 5 -18 6 -24 3 -5
-4 -6 -1 -2 6 5 7 14 10 20 8 7 -3 13 1 13 9 0 8 -7 13 -15 12 -8 -2 -17 4
-19 12 -4 12 -3 12 5 2 7 -11 10 -9 15 7 3 12 2 21 -3 21 -4 0 -6 13 -5 30 1
16 -1 28 -4 25 -4 -2 -13 0 -21 5 -13 8 -13 11 -1 22 8 7 11 8 8 2 -3 -6 0
-11 8 -11 21 0 -2 27 -24 28 -12 0 -11 2 4 9 11 5 14 9 8 9 -7 1 -13 8 -13 17
0 9 5 12 12 8 7 -5 8 -3 4 5 -5 7 -15 10 -23 7 -8 -3 -11 -2 -8 3 3 6 -3 14
-12 20 -10 6 -13 11 -7 11 5 0 16 -6 24 -12 8 -7 7 -4 -2 7 -12 15 -14 25 -6
38 9 17 8 18 -10 8 -15 -8 -23 -8 -28 1 -4 6 -3 8 4 4 6 -3 13 -2 17 3 3 5 -3
14 -12 20 -25 14 -7 14 20 -1 19 -10 20 -9 10 4 -7 8 -11 18 -8 21 3 4 2 5 -2
2 -3 -3 -14 7 -24 22 -17 25 -17 27 -1 39 15 12 15 13 -5 9 -22 -4 -22 -3 -6
23 17 26 17 26 0 13 -17 -13 -18 -12 -12 11 4 16 2 29 -6 33 -7 5 -10 4 -6 -2
3 -5 0 -10 -8 -10 -11 0 -12 4 -4 13 6 7 7 19 3 25 -4 8 -3 9 4 5 17 -11 15 3
-4 22 -15 15 -15 16 2 23 18 7 18 8 1 8 -15 1 -16 4 -6 24 11 20 11 21 -4 8
-15 -11 -17 -11 -17 2 0 8 6 18 13 21 6 3 1 3 -13 0 -25 -7 -25 -6 -6 14 17
20 17 22 2 28 -14 5 -14 9 -4 22 10 12 10 14 1 8 -7 -4 -13 -2 -13 3 0 6 -5
11 -11 11 -8 0 -8 -5 1 -15 7 -9 8 -15 2 -15 -19 0 -21 30 -2 47 18 18 18 18
-7 20 -36 2 -47 17 -26 34 16 13 17 12 4 -3 -12 -16 -11 -18 2 -18 22 0 15 26
-15 60 -21 24 -23 30 -10 30 12 0 13 3 4 12 -8 8 -15 8 -27 -2 -10 -8 -15 -9
-15 -1 0 6 5 11 11 11 8 0 7 6 -2 18 -11 14 -11 15 1 5 8 -7 21 -13 30 -12 13
0 13 1 0 6 -16 7 -40 29 -40 37 0 3 8 3 18 0 14 -5 14 -4 2 4 -8 6 -17 9 -21
6 -4 -2 -10 0 -14 6 -3 5 1 10 10 10 9 0 13 5 10 10 -4 6 -11 7 -17 4 -6 -4
-5 3 2 16 8 15 8 20 1 16 -6 -4 -11 -2 -11 4 0 6 -4 8 -10 5 -5 -3 -10 -2 -10
4 0 5 5 13 10 16 6 3 10 11 10 17 0 6 -7 5 -17 -3 -9 -8 -14 -9 -10 -3 4 7 1
14 -7 17 -8 3 -12 16 -11 31 2 18 -3 27 -16 31 -22 7 -26 44 -6 64 10 10 9 12
-3 9 -8 -2 -14 3 -12 10 1 8 -2 11 -9 6 -8 -5 -10 1 -7 19 3 14 2 26 -1 25
-23 -2 -41 4 -36 12 4 6 11 8 16 5 5 -3 6 1 3 10 -5 11 -10 13 -19 5 -10 -8
-15 -8 -21 1 -4 8 -3 9 4 5 7 -4 12 -1 12 8 0 8 -6 16 -12 19 -10 3 -10 9 0
26 10 17 10 21 0 19 -7 -2 -12 3 -10 10 1 8 -2 11 -8 7 -10 -6 -11 -3 -14 38
-1 14 -8 22 -18 21 -13 -1 -17 5 -14 25 2 18 -2 28 -10 28 -7 0 -11 -4 -8 -9
3 -4 -2 -5 -10 -2 -12 5 -13 11 -6 24 14 27 12 34 -5 20 -15 -12 -16 -11 -19
10 0 6 -8 15 -16 20 -9 6 -10 10 -3 10 6 0 15 -4 18 -10 3 -5 12 -10 18 -9 9
0 8 2 -1 6 -6 2 -10 9 -6 14 3 5 2 8 -3 7 -4 -2 -9 2 -11 7 -2 6 -10 14 -18
18 -8 5 -12 12 -9 17 3 5 0 12 -6 16 -7 4 -9 3 -6 -2 3 -6 1 -16 -4 -24 -8
-13 -9 -12 -7 2 2 9 -6 24 -17 33 -20 16 -19 16 3 5 15 -7 22 -7 22 0 0 5 -5
10 -11 10 -5 0 -7 5 -4 10 5 9 -7 14 -26 12 -4 -1 -5 8 -2 18 4 15 0 20 -13
20 -16 0 -17 2 -4 10 11 7 11 10 2 10 -7 0 -11 4 -8 9 3 5 -1 12 -10 15 -10 4
-13 13 -9 26 4 12 2 20 -5 20 -6 0 -8 -6 -4 -12 5 -10 3 -10 -7 0 -12 11 -12
14 1 23 13 9 12 10 -2 5 -10 -3 -18 -1 -18 5 0 6 -5 7 -12 3 -7 -5 -8 -3 -2 7
12 20 14 40 3 33 -8 -5 -13 9 -10 28 0 5 -2 7 -7 7 -20 -3 -23 3 -11 19 13 15
12 16 -4 3 -13 -10 -15 -17 -6 -27 8 -10 8 -14 0 -14 -6 0 -11 5 -11 11 0 5
-4 8 -9 4 -5 -3 -13 -1 -16 5 -4 6 -1 9 6 8 6 -2 14 3 16 11 4 9 -1 11 -18 7
-13 -3 -18 -3 -11 0 6 3 9 11 6 16 -4 6 -2 8 4 4 6 -3 14 -2 17 4 4 6 1 9 -7
8 -7 -2 -12 2 -11 9 2 6 -5 10 -16 8 -17 -3 -19 1 -23 48 -1 13 -8 24 -15 24
-6 0 -10 -4 -7 -9 3 -4 0 -8 -7 -8 -6 0 -9 8 -6 19 5 21 -17 61 -34 61 -5 0 0
-9 11 -20 17 -17 19 -50 3 -50 -3 0 -3 6 0 14 3 8 -9 30 -29 50 -31 32 -48 76
-24 61 6 -4 8 -10 5 -14 -2 -5 2 -17 10 -27 8 -10 15 -14 15 -7 0 6 -5 15 -10
18 -6 4 -8 10 -5 15 3 5 -6 17 -20 28 -13 11 -21 22 -17 26 3 4 -2 4 -13 0
-15 -6 -17 -4 -12 9 5 14 2 16 -21 12 -27 -5 -27 -5 -3 5 l24 11 -32 31 c-24
23 -29 33 -19 40 8 5 0 6 -20 4 -22 -2 -35 1 -39 10 -3 8 -9 11 -14 8 -5 -3
-9 0 -9 5 0 16 18 13 28 -5 8 -14 10 -14 22 1 11 13 10 15 -4 9 -11 -4 -16 -2
-14 7 2 9 -5 14 -19 13 -17 -1 -23 4 -23 18 0 15 -5 18 -22 14 l-23 -6 23 11
c12 7 22 17 22 23 0 6 -5 5 -12 -2 -17 -17 -28 -15 -28 4 0 8 5 12 10 9 6 -3
10 -2 10 3 0 6 -7 13 -16 16 -8 3 -12 2 -9 -4 3 -6 1 -10 -4 -10 -10 0 -15 14
-12 34 1 5 -5 6 -14 2 -9 -3 -13 -2 -10 4 3 6 2 10 -3 10 -4 0 -16 16 -25 36
-10 19 -22 32 -27 29 -6 -3 -10 -1 -10 5 0 6 -4 9 -9 6 -5 -3 -12 1 -15 10 -9
23 -8 26 7 18 7 -4 9 -3 4 2 -5 5 -14 9 -20 9 -7 1 -11 7 -9 14 1 7 -2 10 -8
6 -8 -5 -7 -12 2 -23 12 -15 11 -16 -5 -3 -10 8 -15 21 -12 30 3 11 0 9 -11
-4 -16 -20 -16 -20 -9 4 4 15 3 21 -3 17 -5 -3 -12 4 -15 15 -4 15 -11 20 -23
15 -13 -5 -14 -4 -5 7 8 11 4 20 -19 41 -17 15 -28 31 -25 37 4 5 3 9 -2 8
-18 -3 -34 1 -29 9 2 4 -4 9 -15 9 -10 1 -19 -3 -19 -8 0 -6 -5 -7 -11 -3 -8
5 -7 10 4 16 9 5 14 15 11 23 -5 12 -10 10 -25 -8 l-18 -22 9 33 c8 29 7 32
-5 22 -12 -10 -15 -9 -16 4 -3 30 -4 34 -13 43 -5 4 -6 3 -2 -4 4 -8 -1 -11
-14 -10 -15 1 -19 7 -16 24 4 20 2 21 -20 13 -13 -5 -25 -7 -25 -5 -5 19 -3
31 6 37 6 5 6 8 -2 8 -6 0 -15 -4 -18 -10 -3 -5 -12 -10 -18 -10 -8 0 -8 3 1
9 11 7 11 11 -2 24 -9 8 -16 22 -17 29 0 7 -5 3 -11 -9 -6 -13 -15 -23 -20
-23 -5 0 -7 4 -3 9 3 6 -3 14 -12 20 -10 6 -13 11 -7 11 12 0 15 30 2 30 -4 0
-8 -4 -8 -10 0 -5 -5 -10 -11 -10 -5 0 -7 5 -3 12 5 8 2 9 -9 5 -10 -4 -16 -2
-14 6 1 7 -7 11 -18 9 -16 -2 -17 -1 -5 7 9 7 18 7 24 1 6 -6 17 -10 26 -10 8
0 1 8 -17 16 -18 9 -35 25 -38 35 -6 18 -7 18 -26 -3 l-20 -23 11 23 c8 16 8
22 0 22 -6 0 -9 4 -6 9 3 5 -1 12 -9 15 -13 4 -13 2 -5 -14 13 -24 13 -41 -1
-18 -5 10 -17 15 -27 12 -10 -4 -13 -2 -7 3 6 4 11 15 13 23 3 10 -3 9 -19 -5
l-22 -20 19 30 c16 26 17 28 1 16 -14 -11 -17 -11 -18 0 -1 8 -1 18 0 22 1 5
-3 6 -8 3 -5 -4 -21 5 -35 19 -28 28 -36 23 -10 -6 12 -13 12 -19 3 -25 -7 -4
-10 -3 -6 3 3 5 -3 17 -14 26 -11 10 -17 23 -13 29 5 8 2 9 -9 5 -10 -3 -17
-2 -17 3 0 6 -4 10 -9 10 -5 0 -7 -10 -5 -22 4 -21 4 -21 -4 -3 -5 11 -7 26
-4 34 4 10 -1 13 -21 9 -16 -3 -25 -1 -24 6 1 6 -4 10 -11 8 -8 -1 -11 2 -7 8
5 8 12 7 22 -2 14 -12 15 -11 3 8 -7 11 -19 21 -26 21 -7 0 -11 -4 -8 -8 5 -9
-30 -4 -46 6 -5 3 -7 11 -5 18 5 14 -2 26 -29 47 -12 9 -17 10 -12 3 4 -8 1
-13 -9 -13 -9 0 -13 5 -10 10 3 6 -1 10 -11 10 -13 0 -14 3 -5 14 8 10 9 16 1
21 -6 4 -9 1 -8 -6 2 -6 -3 -14 -11 -17 -8 -2 -11 0 -7 6 3 6 1 14 -5 18 -8 4
-9 3 -5 -4 5 -8 -1 -11 -18 -10 -13 1 -22 6 -20 10 3 5 10 6 15 3 5 -4 9 -2 9
4 0 5 -13 12 -30 16 -16 4 -31 11 -31 16 -1 5 -2 13 -3 18 0 5 -5 13 -10 18
-5 5 -6 3 -2 -4 4 -8 1 -13 -8 -13 -14 0 -31 17 -31 32 0 3 -4 10 -9 15 -5 5
-6 3 -2 -4 5 -9 -1 -13 -21 -13 -22 0 -25 2 -13 10 13 8 12 10 -4 10 -16 0
-17 2 -5 18 11 14 11 15 0 5 -9 -7 -21 -9 -36 -3 -13 5 -26 6 -29 3 -3 -4 -6
-1 -6 6 0 7 -4 9 -10 6 -5 -3 -10 -1 -10 5 0 6 -4 8 -10 5 -5 -3 -10 1 -10 9
0 21 -17 20 -29 -1 -6 -10 -11 -13 -11 -6 0 6 4 15 10 18 6 4 5 11 -3 19 -6 8
-15 12 -18 10 -4 -2 -12 3 -19 11 -7 8 -19 15 -26 15 -8 0 -14 6 -14 13 -1 6
-8 1 -16 -13 -8 -14 -13 -17 -10 -8 3 10 1 20 -4 23 -6 4 -10 -2 -11 -12 0
-16 -1 -16 -8 2 -5 11 -6 24 -3 29 3 5 0 6 -5 3 -6 -4 -14 0 -17 9 -4 11 -10
13 -19 7 -16 -12 -57 -14 -57 -3 0 5 5 12 12 16 6 4 8 3 5 -3 -3 -5 0 -10 8
-10 21 0 19 10 -6 25 -16 10 -19 10 -13 1 5 -9 2 -10 -10 -6 -10 4 -20 7 -22
7 -3 0 -2 5 2 12 4 7 3 8 -4 4 -7 -4 -12 -3 -12 2 0 6 -9 8 -20 5 -11 -3 -20
-9 -20 -14 0 -5 -5 -9 -12 -9 -6 0 -8 3 -5 7 4 3 2 12 -4 20 -9 10 -15 11 -26
1 -11 -9 -13 -8 -11 2 2 8 -4 14 -12 15 -10 0 -14 9 -13 30 1 17 -1 25 -5 19
-10 -16 -48 -23 -63 -12 -11 8 -10 9 3 4 10 -3 20 -2 22 3 7 11 -67 10 -81 -2
-9 -6 -13 -6 -13 1 0 5 7 12 15 16 8 3 15 11 15 18 0 9 -3 10 -8 2 -9 -13 -42
-14 -42 -1 0 5 6 7 14 4 8 -3 17 0 19 7 4 9 -2 11 -20 8 -20 -4 -24 -2 -18 8
5 9 4 11 -4 6 -6 -4 -9 -11 -6 -16 3 -5 0 -12 -6 -16 -8 -4 -9 -3 -5 4 4 7 2
12 -4 12 -6 0 -8 5 -4 13 5 7 0 6 -11 -3 -10 -8 -16 -10 -13 -5 4 6 -3 17 -15
25 -20 12 -21 12 -9 -3 10 -12 10 -17 1 -23 -8 -4 -9 -3 -5 4 4 7 2 12 -3 12
-6 0 -11 8 -11 18 0 14 -2 15 -10 2 -8 -13 -10 -12 -10 3 0 10 -5 15 -10 12
-6 -4 -8 -10 -5 -15 3 -5 1 -11 -4 -15 -6 -3 -8 4 -6 15 3 17 0 20 -15 15 -15
-5 -18 -3 -14 9 8 21 -5 20 -22 -1 -13 -17 -14 -17 -8 0 7 20 1 21 -26 7 -16
-8 -18 -8 -14 5 3 8 10 13 14 10 5 -3 11 -1 14 4 9 14 -19 7 -40 -9 -18 -14
-18 -14 0 15 l19 30 -28 -25 c-16 -14 -25 -20 -21 -13 9 16 -31 28 -48 14 -9
-8 -13 -7 -13 4 0 8 4 12 8 9 4 -2 10 0 13 5 13 21 -14 20 -29 -1 -16 -23 -16
-23 -10 10 5 28 3 31 -8 20 -8 -7 -14 -17 -12 -23 1 -5 0 -7 -2 -2 -3 4 -9 4
-15 1 -6 -4 -8 2 -3 17 5 19 4 21 -4 9 -6 -8 -11 -10 -11 -5 0 6 -8 1 -17 -10
-12 -15 -14 -16 -10 -3 5 14 1 16 -24 13 -19 -2 -27 0 -23 7 5 8 1 9 -11 4
-15 -5 -16 -4 -5 9 10 12 11 18 1 28 -10 9 -11 8 -5 -8 l7 -20 -23 20 c-13 11
-20 15 -17 9 4 -7 1 -14 -7 -17 -11 -4 -13 1 -11 21 2 15 2 22 -1 15 -3 -6
-16 -9 -30 -7 -16 3 -23 1 -19 -6 4 -6 0 -7 -10 -3 -10 3 -21 0 -26 -8 -7 -10
-8 -6 -5 13 4 21 1 26 -11 21 -12 -5 -14 -3 -8 7 5 8 4 11 -3 6 -6 -4 -8 -14
-5 -23 5 -12 3 -14 -8 -7 -8 5 -16 9 -19 9 -13 1 -53 35 -41 35 8 0 12 2 9 5
-3 3 -13 3 -22 -1 -14 -5 -14 -9 -4 -23 12 -14 11 -14 -4 -2 -10 7 -25 11 -33
7 -9 -3 -14 -2 -11 3 3 4 -1 17 -9 27 -15 19 -15 19 -8 0 4 -13 3 -17 -5 -12
-7 4 -22 9 -34 11 -13 3 -24 9 -26 14 -2 6 -9 8 -17 5 -7 -3 -23 0 -35 6 -17
9 -26 8 -45 -4 -22 -15 -24 -14 -20 4 2 11 -1 23 -7 26 -7 4 -8 2 -4 -4 4 -7
2 -12 -4 -12 -6 0 -8 -5 -4 -12 4 -7 3 -8 -4 -4 -6 4 -9 14 -6 24 3 9 -1 6 -9
-7 -12 -20 -15 -21 -20 -7 -5 11 -3 15 5 10 6 -4 8 -3 4 4 -3 6 -16 9 -27 7
-12 -3 -30 0 -40 6 -15 7 -21 6 -25 -6 -3 -8 -10 -12 -15 -9 -5 3 -7 9 -4 14
3 4 -3 14 -13 21 -16 13 -16 13 -2 -5 14 -18 13 -19 -4 -12 -20 7 -20 7 0 -16
15 -18 15 -20 2 -9 -10 7 -18 10 -19 5 0 -5 -4 0 -8 10 -4 11 -18 21 -31 23
-13 2 -27 8 -31 14 -4 8 -8 7 -11 -2 -3 -8 -11 -10 -24 -4 -10 4 -39 9 -64 9
-25 1 -50 5 -57 9 -6 4 -18 0 -27 -8 -13 -13 -15 -13 -21 5 -6 20 -7 20 -24
-1 -16 -20 -17 -20 -31 -3 -14 18 -14 18 5 4 18 -14 19 -14 7 2 -7 9 -21 15
-30 13 -9 -1 -23 2 -30 8 -9 7 -16 7 -24 -1 -15 -15 -31 -15 -22 0 4 6 3 8 -3
5 -6 -4 -9 -18 -7 -33 2 -23 -9 -26 -12 -3 -1 5 -2 13 -3 18 0 5 -8 12 -17 15
-15 6 -15 4 -3 -10 13 -16 12 -16 -9 -5 -19 10 -26 10 -40 -1 -9 -7 -13 -8 -9
-2 4 7 1 14 -7 17 -20 8 -28 -4 -14 -22 7 -9 8 -13 4 -9 -5 4 -16 2 -25 -5
-14 -11 -15 -10 -1 7 13 17 13 18 -5 14 -11 -2 -19 -10 -17 -17 1 -7 -2 -10
-8 -6 -6 4 -7 12 -1 23 7 14 5 18 -10 18 -12 0 -18 -5 -15 -13 3 -7 2 -12 -2
-12 -21 4 -32 -2 -26 -13 4 -7 3 -9 -1 -5 -17 14 -14 36 3 30 12 -4 11 -1 -3
10 -24 18 -38 12 -30 -13 3 -10 2 -21 -3 -24 -6 -3 -9 2 -8 12 1 12 -7 17 -30
18 -17 1 -37 5 -44 9 -8 5 -11 4 -7 -1 3 -6 -3 -16 -15 -23 -14 -8 -18 -9 -13
-1 5 8 1 11 -11 8 -11 -2 -18 -10 -16 -17 1 -7 -2 -10 -8 -6 -6 4 -7 12 -1 24
7 13 6 18 -4 18 -8 0 -12 -4 -9 -8 2 -4 0 -10 -6 -14 -10 -6 -15 8 -10 30 1 6
-4 5 -10 -1 -9 -9 -9 -17 -1 -31 7 -15 7 -20 -4 -20 -7 0 -11 7 -8 14 4 9 -3
16 -16 20 -11 3 -18 9 -15 14 3 5 3 9 0 9 -3 0 -7 -2 -7 -5z m558 -32 c5 -13
-25 -26 -38 -17 -6 3 -5 11 2 20 13 16 31 14 36 -3z m-592 -2 c3 -5 0 -13 -6
-17 -7 -4 -9 -3 -5 4 3 5 0 13 -6 15 -9 4 -10 6 -1 6 6 1 14 -3 18 -8z m55 -1
c0 -5 -2 -10 -4 -10 -3 0 -8 5 -11 10 -3 6 -1 10 4 10 6 0 11 -4 11 -10z m195
0 c-3 -5 -12 -10 -18 -10 -7 0 -6 4 3 10 19 12 23 12 15 0z m236 -7 c13 -16
12 -17 -3 -5 -11 9 -18 10 -23 2 -3 -5 -11 -10 -18 -10 -8 0 19 27 29 30 1 0
8 -8 15 -17z m126 -5 c-3 -8 -6 -5 -6 6 -1 11 2 17 5 13 3 -3 4 -12 1 -19z
m-397 2 c0 -5 -2 -10 -4 -10 -3 0 -8 5 -11 10 -3 6 -1 10 4 10 6 0 11 -4 11
-10z m545 -2 c5 4 5 1 1 -6 -6 -10 -11 -10 -22 -1 -8 6 -14 14 -14 16 0 3 6 0
13 -6 8 -6 18 -7 22 -3z m-1135 -2 c0 -2 -8 -10 -17 -17 -16 -13 -17 -12 -4 4
13 16 21 21 21 13z m1314 -19 c3 4 6 4 6 1 0 -3 -8 -12 -17 -19 -9 -8 -14 -9
-10 -3 4 7 -2 14 -13 17 -11 3 -20 0 -20 -6 0 -6 -3 -8 -6 -4 -14 14 8 26 30
17 13 -5 27 -6 30 -3z m-1469 -7 c3 -5 1 -10 -4 -10 -6 0 -11 5 -11 10 0 6 2
10 4 10 3 0 8 -4 11 -10z m1600 -30 c3 -6 -1 -7 -9 -4 -18 7 -21 14 -7 14 6 0
13 -4 16 -10z m145 -11 c0 -5 5 -7 10 -4 6 3 10 1 10 -4 0 -16 -16 -13 -30 4
-9 10 -9 15 -1 15 6 0 11 -5 11 -11z m-2097 -26 c-3 -7 -6 -13 -8 -13 -2 0 -5
6 -8 13 -3 8 1 14 8 14 7 0 11 -6 8 -14z m2172 -3 c3 -5 1 -10 -4 -10 -6 0
-11 5 -11 10 0 6 2 10 4 10 3 0 8 -4 11 -10z m302 -72 c-3 -8 -6 -5 -6 6 -1
11 2 17 5 13 3 -3 4 -12 1 -19z m277 -86 c3 -5 -1 -9 -9 -9 -8 0 -12 4 -9 9 3
4 7 8 9 8 2 0 6 -4 9 -8z m-3691 -137 c-3 -9 -8 -14 -10 -11 -3 3 -2 9 2 15 9
16 15 13 8 -4z m37 1 c0 -3 -4 -8 -10 -11 -5 -3 -10 -1 -10 4 0 6 5 11 10 11
6 0 10 -2 10 -4z m-129 -43 c13 -16 12 -17 -3 -4 -17 13 -22 21 -14 21 2 0 10
-8 17 -17z m4226 2 c0 -8 -4 -12 -9 -9 -5 3 -6 10 -3 15 9 13 12 11 12 -6z
m-4296 -44 c-12 -12 -21 -16 -21 -10 0 12 32 40 38 34 2 -2 -6 -13 -17 -24z
m4453 -16 c18 -13 18 -14 -2 -12 -11 0 -19 4 -16 8 2 4 -2 10 -8 12 -7 3 -8 6
-3 6 6 0 18 -6 29 -14z m-4530 -14 c3 -5 -1 -14 -8 -20 -12 -10 -14 -9 -11 6
2 10 4 19 4 21 2 5 10 2 15 -7z m4635 -41 c10 -21 10 -22 -1 -9 -7 9 -19 14
-27 11 -12 -4 -12 -3 0 11 8 8 15 14 15 13 1 0 7 -12 13 -26z m-4675 8 c-6 -9
-44 -6 -44 3 0 4 11 6 24 5 13 0 22 -4 20 -8z m4757 -42 c5 3 21 -4 35 -15 15
-12 22 -21 16 -21 -6 0 -14 5 -18 12 -5 7 -11 5 -21 -7 -7 -11 -13 -14 -13 -9
0 6 6 16 13 23 10 10 8 12 -7 9 -10 -1 -20 3 -22 10 -1 7 0 8 3 2 2 -5 9 -8
14 -4z m199 -117 c0 -6 -4 -7 -10 -4 -5 3 -10 11 -10 16 0 6 5 7 10 4 6 -3 10
-11 10 -16z m-5266 -14 c3 -8 1 -15 -4 -15 -6 0 -10 7 -10 15 0 8 2 15 4 15 2
0 6 -7 10 -15z m5332 -24 c1 -6 0 -7 -3 -1 -2 5 -9 8 -13 5 -5 -3 -11 -1 -14
4 -4 5 2 8 11 7 9 -2 18 -8 19 -15z m-5411 -21 c3 -5 1 -10 -4 -10 -6 0 -11 5
-11 10 0 6 2 10 4 10 3 0 8 -4 11 -10z m-81 -41 c-3 -5 -9 -7 -14 -4 -5 3 -13
-3 -19 -12 -5 -10 -13 -15 -17 -11 -8 9 38 48 49 41 4 -2 5 -9 1 -14z m5573
15 c-3 -3 -12 -4 -19 -1 -8 3 -5 6 6 6 11 1 17 -2 13 -5z m77 -52 c3 -5 -1 -9
-9 -9 -8 0 -15 4 -15 9 0 4 4 8 9 8 6 0 12 -4 15 -8z m67 -29 c13 -17 13 -17
-5 -3 -18 14 -19 13 -12 -5 5 -15 4 -17 -5 -8 -6 6 -8 16 -5 22 9 14 11 14 27
-6z m-5996 -161 c-3 -3 -11 0 -18 7 -9 10 -8 11 6 5 10 -3 15 -9 12 -12z
m6249 -20 c3 -5 -1 -9 -9 -9 -8 0 -12 4 -9 9 3 4 7 8 9 8 2 0 6 -4 9 -8z
m-6420 -70 c3 -5 -1 -9 -9 -9 -8 0 -15 4 -15 9 0 4 4 8 9 8 6 0 12 -4 15 -8z
m-39 -12 c-3 -5 -1 -10 6 -10 7 0 10 -3 6 -6 -9 -9 -28 6 -22 17 4 5 8 9 11 9
3 0 2 -4 -1 -10z m6588 -13 c3 -8 -1 -14 -8 -14 -7 0 -11 6 -8 14 3 7 6 13 8
13 2 0 5 -6 8 -13z m-6646 -38 c-9 -6 -15 -14 -12 -20 4 -5 1 -9 -4 -9 -6 0
-11 3 -11 7 0 12 33 43 39 37 3 -3 -2 -10 -12 -15z m6778 -79 c3 -5 1 -10 -4
-10 -6 0 -11 5 -11 10 0 6 2 10 4 10 3 0 8 -4 11 -10z m75 -75 c-7 -9 -15 -13
-19 -10 -3 3 1 10 9 15 21 14 24 12 10 -5z m-7075 -35 c-13 -14 -14 -20 -5
-20 7 0 11 -3 7 -6 -3 -3 -11 -3 -17 1 -8 5 -6 13 6 26 9 10 19 19 22 19 3 0
-3 -9 -13 -20z m7249 -115 c2 -7 -1 -16 -8 -18 -10 -4 -12 1 -9 14 3 11 0 19
-6 19 -7 0 -9 -4 -6 -10 4 -6 -1 -7 -11 -3 -12 4 -14 8 -6 11 10 3 10 7 0 20
-11 13 -8 12 14 -2 14 -9 29 -23 32 -31z m37 -32 c10 -11 10 -14 2 -9 -8 4
-13 2 -14 -6 0 -10 -2 -10 -6 0 -2 6 -10 9 -16 5 -7 -4 -6 1 2 10 7 9 15 17
16 17 1 0 9 -8 16 -17z m-7451 -37 c0 -3 -4 -8 -10 -11 -5 -3 -10 -1 -10 4 0
6 5 11 10 11 6 0 10 -2 10 -4z m-104 -98 c4 -6 3 -8 -4 -4 -6 3 -13 2 -17 -4
-3 -5 -1 -10 6 -10 7 0 10 -3 6 -6 -3 -3 -11 -3 -17 1 -8 5 -8 11 1 21 14 17
16 17 25 2z m7694 -22 c0 -2 -8 -10 -17 -17 -16 -13 -17 -12 -4 4 13 16 21 21
21 13z m24 -11 c3 -8 1 -15 -4 -15 -6 0 -10 7 -10 15 0 8 2 15 4 15 2 0 6 -7
10 -15z m212 -252 c-10 -11 -19 -7 -22 10 -2 15 0 16 12 6 8 -6 12 -14 10 -16z
m5 -36 c-10 -9 -11 -8 -5 6 3 10 9 15 12 12 3 -3 0 -11 -7 -18z m79 -67 c12
-7 10 -9 -8 -7 -12 0 -22 5 -22 9 0 11 12 10 30 -2z m229 -323 c8 -10 7 -14
-2 -14 -8 0 -14 6 -14 14 0 7 1 13 2 13 2 0 8 -6 14 -13z m-8812 -39 c-3 -8
-6 -5 -6 6 -1 11 2 17 5 13 3 -3 4 -12 1 -19z m8853 -58 c0 -5 -5 -10 -11 -10
-5 0 -7 5 -4 10 3 6 8 10 11 10 2 0 4 -4 4 -10z m-9045 -270 c3 -5 1 -10 -4
-10 -6 0 -11 5 -11 10 0 6 2 10 4 10 3 0 8 -4 11 -10z m-35 -30 c0 -5 -5 -10
-11 -10 -5 0 -7 5 -4 10 3 6 8 10 11 10 2 0 4 -4 4 -10z m9280 -40 c0 -5 -2
-10 -4 -10 -3 0 -8 5 -11 10 -3 6 -1 10 4 10 6 0 11 -4 11 -10z m26 -5 c-3
-23 -12 -26 -13 -5 -1 11 2 20 7 20 4 0 7 -7 6 -15z m20 -57 c12 -14 13 -18 3
-10 -9 6 -20 8 -24 4 -5 -4 -5 -2 -2 5 4 6 1 14 -5 16 -8 3 -8 6 -2 6 6 1 19
-9 30 -21z m61 -140 c-3 -8 -6 -5 -6 6 -1 11 2 17 5 13 3 -3 4 -12 1 -19z m27
-36 c3 -5 -1 -9 -9 -9 -8 0 -12 4 -9 9 3 4 7 8 9 8 2 0 6 -4 9 -8z m-9717
-379 c-4 -3 -1 -13 6 -22 11 -14 10 -15 -7 -1 -18 14 -19 13 -14 -6 3 -13 0
-21 -7 -21 -8 0 -11 7 -7 16 6 19 22 41 30 41 3 0 2 -3 -1 -7z m9878 -3 c3 -5
1 -10 -4 -10 -6 0 -11 5 -11 10 0 6 2 10 4 10 3 0 8 -4 11 -10z m65 -146 c0
-2 -7 -4 -15 -4 -8 0 -15 4 -15 10 0 5 7 7 15 4 8 -4 15 -8 15 -10z m-10040
-174 c0 -5 -2 -10 -4 -10 -3 0 -8 5 -11 10 -3 6 -1 10 4 10 6 0 11 -4 11 -10z
m10186 -406 c2 -12 -1 -13 -12 -3 -7 6 -11 16 -8 21 7 11 17 3 20 -18z m49
-263 c-6 -5 -25 10 -25 20 0 5 6 4 14 -3 8 -7 12 -15 11 -17z m-7895 -71 c0
-5 -5 -10 -11 -10 -5 0 -7 5 -4 10 3 6 8 10 11 10 2 0 4 -4 4 -10z m7940 -194
c0 -3 -4 -8 -10 -11 -5 -3 -10 -1 -10 4 0 6 5 11 10 11 6 0 10 -2 10 -4z
m-10483 -136 c-2 -11 -7 -23 -12 -27 -4 -5 -5 -3 -1 4 3 6 2 14 -4 18 -12 7
-4 25 11 25 5 0 8 -9 6 -20z m-8 -126 c-11 -13 -5 -19 15 -15 5 1 4 -5 -3 -13
-21 -26 -35 -3 -21 34 1 3 2 9 1 13 -1 5 3 6 9 2 8 -5 7 -11 -1 -21z m5 -106
c-3 -4 -9 -8 -15 -8 -5 0 -9 4 -9 8 0 5 7 9 15 9 8 0 12 -4 9 -9z m10501 -98
c3 -6 -1 -7 -9 -4 -18 7 -21 14 -7 14 6 0 13 -4 16 -10z m-10512 -47 c-3 -7
-9 -10 -14 -7 -14 8 -11 21 5 21 8 0 12 -6 9 -14z m10488 -46 c-10 -9 -11 -8
-5 6 3 10 9 15 12 12 3 -3 0 -11 -7 -18z m3 -33 c3 -8 2 -12 -4 -9 -6 3 -10
10 -10 16 0 14 7 11 14 -7z m17 -111 c13 -16 12 -17 -3 -4 -10 7 -18 15 -18
17 0 8 8 3 21 -13z m-10494 1 c-3 -3 -12 -4 -19 -1 -8 3 -5 6 6 6 11 1 17 -2
13 -5z m3 -28 c0 -2 -8 -10 -17 -17 -16 -13 -17 -12 -4 4 13 16 21 21 21 13z
m10500 -20 c0 -3 -4 -8 -10 -11 -5 -3 -10 -1 -10 4 0 6 5 11 10 11 6 0 10 -2
10 -4z m-19 -33 c13 -16 12 -17 -3 -4 -10 7 -18 15 -18 17 0 8 8 3 21 -13z
m-10485 -179 c2 -12 -1 -13 -12 -3 -7 6 -11 16 -8 21 7 11 17 3 20 -18z m7
-171 c-5 -12 -3 -14 8 -8 8 5 11 4 6 0 -4 -5 -14 -10 -22 -11 -12 -2 -12 2 -5
17 13 23 22 25 13 2z m10465 -18 c-3 -3 -9 2 -12 12 -6 14 -5 15 5 6 7 -7 10
-15 7 -18z m-10461 -60 c0 -8 -4 -12 -9 -9 -5 3 -6 10 -3 15 9 13 12 11 12 -6z
m10430 -150 c0 -8 -4 -12 -9 -9 -5 3 -6 10 -3 15 9 13 12 11 12 -6z m-16 -108
c-13 -13 -26 -3 -16 12 3 6 11 8 17 5 6 -4 6 -10 -1 -17z m-10 -41 c-6 -7 -9
-15 -6 -18 3 -2 -2 -5 -10 -5 -13 0 -13 2 0 17 8 9 12 20 8 25 -5 4 -2 5 5 1
9 -6 10 -11 3 -20z m-35 -101 c-3 -8 2 -19 12 -24 9 -6 12 -11 7 -11 -17 0
-34 21 -28 36 3 8 7 14 10 14 3 0 3 -7 -1 -15z m-23 -110 c-3 -9 -8 -14 -10
-11 -3 3 -2 9 2 15 9 16 15 13 8 -4z m-36 -140 c0 -8 -4 -12 -9 -9 -5 3 -6 10
-3 15 9 13 12 11 12 -6z m-36 -198 c-5 -5 -7 -16 -4 -23 3 -8 0 -14 -7 -14 -6
0 -8 5 -5 10 3 6 0 10 -7 11 -10 0 -10 2 0 6 6 2 10 8 8 12 -3 4 2 8 10 8 9 0
11 -4 5 -10z m-44 -82 c0 -8 -4 -12 -9 -9 -5 3 -6 10 -3 15 9 13 12 11 12 -6z
m-9983 -106 c-2 -4 2 -10 8 -12 8 -4 9 -6 2 -6 -6 -1 -17 5 -23 12 -8 10 -7
14 4 14 8 0 12 -4 9 -8z m9941 -18 c-3 -5 -1 -12 5 -16 6 -4 8 -11 4 -16 -9
-14 -23 -1 -19 19 5 23 4 22 11 22 3 0 3 -4 -1 -9z m35 5 c0 -3 -4 -8 -10 -11
-5 -3 -10 -1 -10 4 0 6 5 11 10 11 6 0 10 -2 10 -4z m-50 -105 c0 -6 -4 -12
-8 -15 -5 -3 -9 1 -9 9 0 8 4 15 9 15 4 0 8 -4 8 -9z m-9863 -48 c0 -9 -4 -10
-14 -2 -7 6 -13 12 -13 14 0 1 6 2 13 2 8 0 14 -6 14 -14z m9840 -19 c-3 -3
-12 -4 -19 -1 -8 3 -5 6 6 6 11 1 17 -2 13 -5z m-9837 -14 c0 -5 -5 -10 -11
-10 -5 0 -7 5 -4 10 3 6 8 10 11 10 2 0 4 -4 4 -10z m9780 -100 c0 -5 -5 -10
-11 -10 -5 0 -7 5 -4 10 3 6 8 10 11 10 2 0 4 -4 4 -10z m-16 -41 c-10 -12
-18 -24 -17 -28 1 -3 0 -8 -2 -9 -2 -2 -3 3 -1 11 2 16 25 47 34 47 3 0 -3 -9
-14 -21z m-9674 -64 c0 -5 -5 -3 -10 5 -5 8 -10 20 -10 25 0 6 5 3 10 -5 5 -8
10 -19 10 -25z m80 -141 c0 -2 -7 -4 -15 -4 -8 0 -15 4 -15 10 0 5 7 7 15 4 8
-4 15 -8 15 -10z m9445 -114 c3 -5 1 -10 -4 -10 -6 0 -11 5 -11 10 0 6 2 10 4
10 3 0 8 -4 11 -10z m-22 -63 c4 3 7 4 7 1 0 -3 -8 -12 -17 -19 -10 -7 -15 -9
-11 -5 4 5 2 16 -5 25 -10 14 -10 14 4 4 9 -7 19 -10 22 -6z m-9194 -294 c6
-12 7 -24 3 -27 -5 -3 -9 0 -9 7 0 7 -4 21 -8 32 -10 25 -2 18 14 -12z m8911
-183 c0 -5 -5 -10 -11 -10 -5 0 -7 5 -4 10 3 6 8 10 11 10 2 0 4 -4 4 -10z
m-8699 -134 c-10 -11 -8 -16 9 -21 12 -4 19 -9 17 -12 -3 -2 -15 1 -27 7 -17
9 -19 14 -9 26 6 8 14 14 16 14 3 0 0 -6 -6 -14z m45 -66 c5 1 10 -4 12 -12 3
-11 2 -11 -6 0 -5 8 -13 13 -18 12 -5 -1 -10 4 -12 12 -3 11 -2 11 6 0 5 -8
13 -13 18 -12z m108 -166 c7 -19 2 -18 -19 6 -16 17 -16 20 -3 15 9 -4 19 -13
22 -21z m8134 -211 c-16 -19 -29 -5 -16 17 9 13 14 16 20 7 4 -6 2 -17 -4 -24z
m-7858 -103 c0 -5 -5 -10 -11 -10 -5 0 -7 5 -4 10 3 6 8 10 11 10 2 0 4 -4 4
-10z m7640 -136 c0 -8 -19 -13 -24 -6 -3 5 1 9 9 9 8 0 15 -2 15 -3z m-7415
-84 c3 -6 -1 -7 -9 -4 -18 7 -21 14 -7 14 6 0 13 -4 16 -10z m7255 -54 c0 -3
-4 -8 -10 -11 -5 -3 -10 -1 -10 4 0 6 5 11 10 11 6 0 10 -2 10 -4z m-7046
-132 c3 -8 2 -12 -4 -9 -6 3 -10 10 -10 16 0 14 7 11 14 -7z m6899 -15 c-14
-14 -23 -17 -28 -10 -3 6 -3 11 2 10 20 -4 27 2 13 12 -13 9 -12 10 3 5 9 -3
17 0 17 6 0 6 3 8 7 4 4 -3 -2 -16 -14 -27z m-260 -197 c2 7 7 10 11 7 4 -3 0
-12 -8 -18 -12 -10 -17 -8 -26 11 -10 21 -10 21 3 5 11 -13 16 -15 20 -5z
m-33 -36 c0 -3 -4 -8 -10 -11 -5 -3 -10 -1 -10 4 0 6 5 11 10 11 6 0 10 -2 10
-4z m-6202 -71 c-3 -3 -9 2 -12 12 -6 14 -5 15 5 6 7 -7 10 -15 7 -18z m42
-35 c0 -5 -2 -10 -4 -10 -3 0 -8 5 -11 10 -3 6 -1 10 4 10 6 0 11 -4 11 -10z
m5904 -68 c3 -5 -1 -9 -9 -9 -8 0 -12 4 -9 9 3 4 7 8 9 8 2 0 6 -4 9 -8z
m-5729 -44 c5 4 5 1 1 -6 -5 -9 -12 -9 -27 -2 -10 6 -19 13 -19 16 0 2 8 0 19
-5 10 -6 22 -7 26 -3z m5513 -95 c-6 -7 -13 -11 -16 -9 -2 3 -14 1 -26 -5 -18
-9 -18 -8 3 9 28 22 57 26 39 5z m-108 -57 c0 -2 -7 -7 -16 -10 -8 -3 -12 -2
-9 4 6 10 25 14 25 6z m-69 -49 c-10 -9 -11 -8 -5 6 3 10 9 15 12 12 3 -3 0
-11 -7 -18z m-226 -107 c3 -6 -1 -7 -9 -4 -18 7 -21 14 -7 14 6 0 13 -4 16
-10z m-4495 -36 c0 -8 -19 -13 -24 -6 -3 5 1 9 9 9 8 0 15 -2 15 -3z m4410 -4
c0 -5 -2 -10 -4 -10 -3 0 -8 5 -11 10 -3 6 -1 10 4 10 6 0 11 -4 11 -10z
m-180 -60 c0 -5 -5 -10 -11 -10 -5 0 -7 5 -4 10 3 6 8 10 11 10 2 0 4 -4 4
-10z m-3983 -33 c0 -8 -6 -14 -14 -14 -17 0 -17 14 0 20 6 3 12 6 13 6 0 1 1
-5 1 -12z m99 -46 c0 -14 -4 -17 -12 -11 -6 6 -14 7 -17 3 -4 -3 -7 -1 -7 5 0
6 8 13 18 15 9 3 17 5 17 6 1 0 1 -8 1 -18z m3739 -1 c3 -5 1 -10 -4 -10 -6 0
-11 5 -11 10 0 6 2 10 4 10 3 0 8 -4 11 -10z m-115 -14 c0 -2 -7 -7 -16 -10
-8 -3 -12 -2 -9 4 6 10 25 14 25 6z m-159 -69 c-1 -12 -15 -9 -19 4 -3 6 1 10
8 8 6 -3 11 -8 11 -12z m-3201 -17 c0 -5 -2 -10 -4 -10 -3 0 -8 5 -11 10 -3 6
-1 10 4 10 6 0 11 -4 11 -10z m71 -8 c-7 -2 -18 1 -23 6 -8 8 -4 9 13 5 13 -4
18 -8 10 -11z m2746 -94 c-3 -8 -6 -5 -6 6 -1 11 2 17 5 13 3 -3 4 -12 1 -19z
m-2457 2 c0 -5 -4 -10 -10 -10 -5 0 -10 5 -10 10 0 6 5 10 10 10 6 0 10 -4 10
-10z m2424 -14 c-10 -8 -21 -12 -23 -10 -3 2 4 11 15 18 10 8 21 12 23 10 3
-2 -4 -11 -15 -18z m-2221 -31 c-3 -9 -8 -14 -10 -11 -3 3 -2 9 2 15 9 16 15
13 8 -4z m44 -7 c-3 -8 -6 -5 -6 6 -1 11 2 17 5 13 3 -3 4 -12 1 -19z m144
-16 c-7 -2 -18 1 -23 6 -8 8 -4 9 13 5 13 -4 18 -8 10 -11z m1789 8 c0 -5 -2
-10 -4 -10 -3 0 -8 5 -11 10 -3 6 -1 10 4 10 6 0 11 -4 11 -10z m-1700 -29 c0
-4 -6 -8 -13 -8 -8 0 -14 6 -14 13 0 7 6 10 14 7 7 -3 13 -8 13 -12z m1471 2
c13 -16 12 -17 -3 -4 -17 13 -22 21 -14 21 2 0 10 -8 17 -17z m69 7 c0 -5 -5
-10 -11 -10 -5 0 -7 5 -4 10 3 6 8 10 11 10 2 0 4 -4 4 -10z m-1405 -28 c-3
-3 -11 0 -18 7 -9 10 -8 11 6 5 10 -3 15 -9 12 -12z m1286 -5 c-10 -9 -11 -8
-5 6 3 10 9 15 12 12 3 -3 0 -11 -7 -18z m-1308 -7 c10 -12 9 -12 -3 -3 -8 6
-23 9 -33 8 -9 -2 -15 0 -12 5 7 12 33 6 48 -10z m374 -12 c-3 -8 -6 -5 -6 6
-1 11 2 17 5 13 3 -3 4 -12 1 -19z m84 9 c-8 -10 -7 -17 2 -27 10 -12 9 -12
-5 -1 -15 11 -21 11 -33 1 -13 -11 -14 -10 -10 1 3 8 15 19 28 25 30 16 31 16
18 1z m33 -2 c-4 -8 -11 -15 -16 -15 -6 0 -5 6 2 15 7 8 14 15 16 15 2 0 1 -7
-2 -15z m460 -16 c-9 -10 -21 -16 -26 -13 -11 7 -1 19 15 19 7 1 11 7 9 14 -1
7 2 9 8 6 8 -5 6 -13 -6 -26z m46 -4 c-13 -15 -35 -11 -24 6 3 5 10 7 15 4 5
-4 9 -1 9 6 0 7 3 9 6 6 4 -4 1 -13 -6 -22z m-110 2 c0 -7 4 -6 11 3 8 12 10
12 7 1 -5 -18 -34 -23 -47 -7 -7 8 -4 12 10 13 10 1 19 -4 19 -10z"/>
<path d="M5740 10690 c-9 -6 -10 -10 -3 -10 6 0 15 5 18 10 8 12 4 12 -15 0z"/>
<path d="M6466 10608 c3 -5 10 -6 15 -3 13 9 11 12 -6 12 -8 0 -12 -4 -9 -9z"/>
<path d="M4227 10589 c7 -7 15 -10 18 -7 3 3 -2 9 -12 12 -14 6 -15 5 -6 -5z"/>
<path d="M4191 10574 c0 -11 3 -14 6 -6 3 7 2 16 -1 19 -3 4 -6 -2 -5 -13z"/>
<path d="M4120 10571 c0 -6 4 -13 10 -16 6 -3 7 1 4 9 -7 18 -14 21 -14 7z"/>
<path d="M6631 10571 c-8 -5 -9 -11 -3 -15 5 -3 12 1 16 9 6 17 6 18 -13 6z"/>
<path d="M6713 10555 c0 -8 4 -12 9 -9 5 3 6 10 3 15 -9 13 -12 11 -12 -6z"/>
<path d="M3995 10527 l-20 -20 20 11 c11 5 25 11 30 12 16 3 17 7 3 12 -7 3
-22 -4 -33 -15z"/>
<path d="M6865 10501 c-6 -11 13 -26 22 -17 4 3 0 6 -8 6 -11 0 -11 2 1 10 9
6 10 10 3 10 -6 0 -14 -4 -18 -9z"/>
<path d="M6908 10493 c7 -3 16 -2 19 1 4 3 -2 6 -13 5 -11 0 -14 -3 -6 -6z"/>
<path d="M7410 10299 c0 -5 5 -7 10 -4 6 3 10 8 10 11 0 2 -4 4 -10 4 -5 0
-10 -5 -10 -11z"/>
<path d="M7519 10253 c-7 -10 -9 -15 -5 -11 5 4 15 3 23 -3 9 -9 13 -8 13 0 0
6 -5 11 -11 11 -5 0 -7 5 -4 10 10 17 -2 11 -16 -7z"/>
<path d="M7570 10232 c6 -13 14 -21 18 -18 3 4 -2 14 -12 24 -18 16 -18 16 -6
-6z"/>
<path d="M2876 10081 c9 -9 34 -9 34 -1 0 5 -9 8 -20 7 -10 -1 -17 -3 -14 -6z"/>
<path d="M7940 10056 c0 -2 7 -7 16 -10 8 -3 12 -2 9 4 -6 10 -25 14 -25 6z"/>
<path d="M7987 10039 c7 -7 15 -10 18 -7 3 3 -2 9 -12 12 -14 6 -15 5 -6 -5z"/>
<path d="M8355 9810 c4 -7 2 -15 -5 -20 -8 -5 -7 -9 4 -13 19 -8 23 28 4 39
-7 5 -8 3 -3 -6z"/>
<path d="M2269 9694 c-7 -9 -6 -12 6 -10 22 3 40 23 20 23 -8 0 -20 -6 -26
-13z"/>
<path d="M2213 9633 c0 -9 4 -10 14 -2 7 6 13 12 13 14 0 1 -6 2 -13 2 -8 0
-14 -6 -14 -14z"/>
<path d="M8795 9461 c-3 -5 -1 -12 5 -16 5 -3 10 1 10 9 0 18 -6 21 -15 7z"/>
<path d="M8889 9383 c-13 -16 -12 -17 4 -4 16 13 21 21 13 21 -2 0 -10 -8 -17
-17z"/>
<path d="M1777 9286 c-3 -8 -2 -18 3 -21 13 -8 20 9 11 24 -6 10 -10 9 -14 -3z"/>
<path d="M1307 8769 c7 -7 15 -10 18 -7 3 3 -2 9 -12 12 -14 6 -15 5 -6 -5z"/>
<path d="M9725 8460 c-3 -5 -1 -10 4 -10 6 0 11 5 11 10 0 6 -2 10 -4 10 -3 0
-8 -4 -11 -10z"/>
<path d="M1060 8441 c0 -6 4 -12 8 -15 5 -3 9 1 9 9 0 8 -4 15 -9 15 -4 0 -8
-4 -8 -9z"/>
<path d="M950 8279 c0 -5 5 -7 10 -4 6 3 10 8 10 11 0 2 -4 4 -10 4 -5 0 -10
-5 -10 -11z"/>
<path d="M876 8183 c-6 -14 -5 -15 5 -6 7 7 10 15 7 18 -3 3 -9 -2 -12 -12z"/>
<path d="M573 7625 c0 -8 4 -12 9 -9 5 3 6 10 3 15 -9 13 -12 11 -12 -6z"/>
<path d="M10202 7598 c2 -6 10 -13 16 -14 7 -1 8 0 2 3 -5 2 -8 9 -4 14 3 5 0
9 -6 9 -7 0 -10 -5 -8 -12z"/>
<path d="M346 7042 c-3 -5 1 -9 9 -9 8 0 12 4 9 9 -3 4 -7 8 -9 8 -2 0 -6 -4
-9 -8z"/>
<path d="M10470 6939 c0 -5 5 -7 10 -4 6 3 10 8 10 11 0 2 -4 4 -10 4 -5 0
-10 -5 -10 -11z"/>
<path d="M10484 6839 c-3 -6 -2 -15 4 -21 6 -6 12 -6 17 3 6 8 4 10 -5 4 -10
-6 -12 -4 -7 8 7 19 2 23 -9 6z"/>
<path d="M273 6693 c4 -6 0 -19 -8 -29 -17 -23 -19 -34 -5 -34 6 0 9 3 8 8 -1
4 3 17 10 29 9 16 9 24 0 29 -6 4 -8 3 -5 -3z"/>
<path d="M240 6590 c-9 -6 -10 -10 -3 -10 6 0 15 5 18 10 8 12 4 12 -15 0z"/>
<path d="M239 6568 c-6 -15 -4 -58 3 -58 4 0 8 3 9 8 0 4 2 17 5 30 2 12 -1
22 -6 22 -6 0 -10 -1 -11 -2z"/>
<path d="M224 6492 c3 -5 0 -13 -6 -15 -8 -3 -6 -6 5 -6 19 -1 23 14 5 25 -6
4 -8 3 -4 -4z"/>
<path d="M170 6199 c0 -5 5 -7 10 -4 6 3 10 8 10 11 0 2 -4 4 -10 4 -5 0 -10
-5 -10 -11z"/>
<path d="M10615 6160 c-3 -6 1 -7 9 -4 18 7 21 14 7 14 -6 0 -13 -4 -16 -10z"/>
<path d="M10630 6141 c0 -6 4 -13 10 -16 6 -3 7 1 4 9 -7 18 -14 21 -14 7z"/>
<path d="M150 6070 c0 -5 5 -10 11 -10 5 0 7 5 4 10 -3 6 -8 10 -11 10 -2 0
-4 -4 -4 -10z"/>
<path d="M10643 5854 c0 -7 6 -10 14 -7 7 3 13 8 13 12 0 4 -6 8 -13 8 -8 0
-14 -6 -14 -13z"/>
<path d="M10655 5721 c-9 -15 15 -25 28 -12 9 9 7 10 -7 5 -13 -5 -17 -4 -12
4 4 7 5 12 2 12 -3 0 -7 -4 -11 -9z"/>
<path d="M10655 5680 c-3 -5 -1 -10 4 -10 6 0 11 5 11 10 0 6 -2 10 -4 10 -3
0 -8 -4 -11 -10z"/>
<path d="M10656 5652 c-2 -4 4 -8 14 -8 10 0 16 4 14 8 -3 4 -9 8 -14 8 -5 0
-11 -4 -14 -8z"/>
<path d="M125 5571 c-3 -5 -2 -12 3 -15 5 -3 9 1 9 9 0 17 -3 19 -12 6z"/>
<path d="M10675 5450 c-3 -5 -3 -10 2 -10 4 0 1 -5 -7 -11 -12 -8 -12 -10 -1
-7 8 2 15 12 17 21 3 19 -2 22 -11 7z"/>
<path d="M119 5401 c9 -6 10 -10 2 -14 -8 -4 -8 -5 1 -3 20 4 21 26 1 26 -14
0 -15 -2 -4 -9z"/>
<path d="M123 5350 c5 -29 13 -33 13 -5 0 14 -4 25 -8 25 -4 0 -7 -9 -5 -20z"/>
<path d="M130 5101 c0 -6 4 -13 10 -16 6 -3 7 1 4 9 -7 18 -14 21 -14 7z"/>
<path d="M143 4965 c0 -8 4 -15 9 -15 4 0 8 4 8 9 0 6 -4 12 -8 15 -5 3 -9 -1
-9 -9z"/>
<path d="M10623 4771 c-10 -15 -9 -20 2 -25 10 -3 12 0 8 11 -4 10 -2 14 4 10
5 -3 10 0 10 8 0 20 -10 19 -24 -4z"/>
<path d="M260 4265 c-10 -12 -10 -15 2 -15 8 0 15 7 15 15 0 8 -1 15 -2 15 -2
0 -8 -7 -15 -15z"/>
<path d="M259 4223 c-13 -17 -13 -17 5 -3 18 14 19 13 12 -5 -6 -16 -5 -18 5
-7 9 8 10 15 3 22 -8 8 -15 5 -25 -7z"/>
<path d="M270 4176 c7 -7 14 -6 21 1 9 9 7 12 -9 10 -14 -1 -18 -5 -12 -11z"/>
<path d="M10497 4075 c-4 -8 -1 -17 6 -21 7 -4 9 -4 5 1 -4 4 -3 14 3 22 7 8
8 13 1 13 -5 0 -12 -7 -15 -15z"/>
<path d="M10475 4040 c-3 -5 -1 -10 4 -10 6 0 11 5 11 10 0 6 -2 10 -4 10 -3
0 -8 -4 -11 -10z"/>
<path d="M343 3933 c4 -3 1 -13 -6 -22 -11 -14 -10 -14 5 -2 16 12 16 31 1 31
-4 0 -3 -3 0 -7z"/>
<path d="M10405 3820 c-3 -5 -1 -10 4 -10 6 0 11 5 11 10 0 6 -2 10 -4 10 -3
0 -8 -4 -11 -10z"/>
<path d="M10395 3790 c-4 -6 -1 -9 7 -8 7 2 12 -3 10 -10 -1 -8 2 -11 8 -7 8
5 7 11 -1 21 -14 17 -16 17 -24 4z"/>
<path d="M10054 2978 c-4 -7 -4 -10 1 -6 4 4 15 2 24 -5 14 -11 14 -10 2 6
-16 20 -18 21 -27 5z"/>
<path d="M770 2920 c0 -5 5 -10 11 -10 5 0 7 5 4 10 -3 6 -8 10 -11 10 -2 0
-4 -4 -4 -10z"/>
<path d="M9965 2820 c-3 -5 1 -10 10 -10 9 0 13 5 10 10 -3 6 -8 10 -10 10 -2
0 -7 -4 -10 -10z"/>
<path d="M9930 2719 c0 -5 5 -7 10 -4 6 3 10 8 10 11 0 2 -4 4 -10 4 -5 0 -10
-5 -10 -11z"/>
<path d="M9585 2229 c-11 -16 -1 -19 13 -3 7 8 8 14 3 14 -5 0 -13 -5 -16 -11z"/>
<path d="M9516 2152 c-3 -5 1 -9 9 -9 8 0 12 4 9 9 -3 4 -7 8 -9 8 -2 0 -6 -4
-9 -8z"/>
<path d="M1330 2089 c0 -6 -7 -8 -16 -5 -8 3 -12 2 -9 -3 9 -15 44 -9 38 6 -6
16 -13 17 -13 2z"/>
<path d="M1365 2039 c-4 -6 -5 -12 -2 -15 2 -3 7 2 10 11 7 17 1 20 -8 4z"/>
<path d="M9330 1920 c0 -5 5 -10 11 -10 5 0 7 5 4 10 -3 6 -8 10 -11 10 -2 0
-4 -4 -4 -10z"/>
<path d="M1613 1747 c0 -7 9 -14 20 -14 11 -1 18 -1 16 0 -2 2 -11 8 -20 15
-12 9 -16 9 -16 -1z"/>
<path d="M1680 1676 c0 -2 7 -7 16 -10 8 -3 12 -2 9 4 -6 10 -25 14 -25 6z"/>
<path d="M8667 1299 c7 -7 15 -10 18 -7 3 3 -2 9 -12 12 -14 6 -15 5 -6 -5z"/>
<path d="M2256 1205 c4 -8 11 -15 16 -15 6 0 5 6 -2 15 -7 8 -14 15 -16 15 -2
0 -1 -7 2 -15z"/>
<path d="M2220 1206 c0 -2 7 -7 16 -10 8 -3 12 -2 9 4 -6 10 -25 14 -25 6z"/>
<path d="M8385 1080 c-3 -6 1 -7 9 -4 18 7 21 14 7 14 -6 0 -13 -4 -16 -10z"/>
<path d="M2585 966 c-17 -12 -16 -13 6 -11 13 1 29 -2 36 -7 7 -6 14 -4 19 4
4 7 3 10 -1 5 -5 -4 -16 0 -25 8 -14 12 -19 13 -35 1z"/>
<path d="M8015 871 c-3 -5 -1 -12 5 -16 5 -3 10 1 10 9 0 18 -6 21 -15 7z"/>
<path d="M7830 766 c0 -2 7 -7 16 -10 8 -3 12 -2 9 4 -6 10 -25 14 -25 6z"/>
<path d="M7813 745 c0 -7 6 -11 14 -8 7 3 13 6 13 8 0 2 -6 5 -13 8 -8 3 -14
-1 -14 -8z"/>
<path d="M7483 594 c-15 -16 -16 -24 -4 -24 8 0 24 30 19 35 -2 2 -9 -3 -15
-11z"/>
<path d="M3374 560 c0 -13 4 -16 10 -10 7 7 7 13 0 20 -6 6 -10 3 -10 -10z"/>
<path d="M7394 559 c-4 -7 -3 -9 4 -5 5 3 13 0 15 -6 4 -9 6 -10 6 -1 1 17
-16 25 -25 12z"/>
<path d="M7177 469 c7 -7 15 -10 18 -7 3 3 -2 9 -12 12 -14 6 -15 5 -6 -5z"/>
<path d="M3710 441 c0 -10 19 -25 25 -20 1 2 -3 10 -11 17 -8 7 -14 8 -14 3z"/>
<path d="M6861 387 c-9 -12 -8 -16 4 -20 8 -4 14 -3 14 1 -3 20 2 25 12 12 9
-12 10 -12 7 -1 -6 21 -23 24 -37 8z"/>
<path d="M6660 329 c0 -15 18 -19 23 -6 3 8 -1 14 -9 14 -8 0 -14 -4 -14 -8z"/>
<path d="M4237 293 c-4 -3 -7 -11 -7 -17 0 -6 5 -5 12 2 6 6 9 14 7 17 -3 3
-9 2 -12 -2z"/>
<path d="M6485 290 c-3 -5 -2 -10 4 -10 5 0 13 5 16 10 3 6 2 10 -4 10 -5 0
-13 -4 -16 -10z"/>
<path d="M4455 240 c-2 -3 5 -7 16 -7 10 -1 19 2 19 6 0 9 -29 10 -35 1z"/>
<path d="M4667 207 c-3 -8 1 -14 8 -14 7 0 11 6 8 14 -6 16 -10 16 -16 0z"/>
<path d="M5854 189 c-3 -6 -1 -16 5 -22 9 -9 10 -7 5 7 -6 15 -4 17 6 11 9 -5
11 -4 6 3 -9 15 -13 15 -22 1z"/>
<path d="M5895 190 c-3 -5 -1 -10 4 -10 6 0 11 5 11 10 0 6 -2 10 -4 10 -3 0
-8 -4 -11 -10z"/>
<path d="M5013 163 c0 -9 4 -10 12 -3 7 5 15 7 18 3 4 -3 7 -1 7 5 0 6 -8 10
-18 9 -10 0 -19 -7 -19 -14z"/>
<path d="M5096 163 c-6 -14 -5 -15 5 -6 7 7 10 15 7 18 -3 3 -9 -2 -12 -12z"/>
<path d="M4950 166 c0 -2 7 -7 16 -10 8 -3 12 -2 9 4 -6 10 -25 14 -25 6z"/>
<path d="M5795 160 c3 -5 8 -10 11 -10 2 0 4 5 4 10 0 6 -5 10 -11 10 -5 0 -7
-4 -4 -10z"/>
</g>
</svg>
