<?xml version="1.0" standalone="no"?>
<!DOCTYPE svg PUBLIC "-//W3C//DTD SVG 20010904//EN"
 "http://www.w3.org/TR/2001/REC-SVG-20010904/DTD/svg10.dtd">
<svg version="1.0" xmlns="http://www.w3.org/2000/svg"
 width="591.000000pt" height="591.000000pt" viewBox="0 0 591.000000 591.000000"
 preserveAspectRatio="xMidYMid meet">
<metadata>
Created by potrace 1.14, written by Peter Selinger 2001-2017
</metadata>
<g transform="translate(0.000000,591.000000) scale(0.100000,-0.100000)"
fill="#000000" stroke="none">
<path d="M467 5390 c-14 -11 -29 -35 -32 -53 -4 -17 -11 -37 -16 -43 -14 -17
-18 -250 -6 -314 7 -35 19 -63 34 -77 13 -12 23 -28 23 -35 0 -34 32 26 59
113 27 85 31 110 31 215 0 104 -3 125 -22 164 -27 53 -37 57 -71 30z"/>
<path d="M456 4692 c-18 -30 -23 -165 -30 -867 -3 -297 -10 -632 -16 -745 -5
-113 -12 -353 -15 -535 -3 -181 -10 -427 -16 -545 -6 -118 -10 -449 -11 -735
0 -442 2 -537 16 -630 10 -60 21 -114 25 -118 5 -5 19 8 31 28 30 48 38 126
49 470 10 295 6 3573 -5 3637 -6 38 -18 56 -28 40z"/>
<path d="M2403 4589 c-90 -60 -114 -91 -80 -105 18 -7 208 86 221 109 14 21
-3 51 -30 55 -10 1 -61 -25 -111 -59z"/>
<path d="M1062 4608 c-16 -16 -15 -45 1 -55 6 -4 32 -8 56 -8 39 0 46 -3 52
-25 9 -31 9 -449 0 -545 l-6 -70 -49 0 c-55 0 -80 -21 -60 -52 10 -16 29 -18
159 -18 130 0 149 2 159 18 19 30 -5 52 -52 49 -33 -2 -43 2 -53 19 -8 16 -10
117 -8 358 l4 336 -95 3 c-66 2 -99 -1 -108 -10z"/>
<path d="M1762 4608 c-16 -16 -15 -45 1 -55 6 -4 32 -8 57 -8 41 0 45 -2 51
-30 8 -38 9 -447 0 -540 l-6 -70 -49 0 c-55 0 -80 -21 -60 -52 10 -16 29 -18
159 -18 130 0 149 2 159 18 19 30 -5 52 -52 49 -33 -2 -43 2 -53 19 -8 16 -10
117 -8 358 l4 336 -95 3 c-66 2 -99 -1 -108 -10z"/>
<path d="M1522 4584 c-34 -23 -27 -83 11 -104 24 -13 30 -13 55 0 37 21 44 81
10 104 -12 9 -29 16 -38 16 -9 0 -26 -7 -38 -16z"/>
<path d="M1422 4398 c-17 -17 -15 -55 4 -62 9 -4 32 -3 51 0 25 5 38 3 44 -7
5 -8 9 -102 9 -209 0 -107 -4 -201 -9 -209 -6 -10 -19 -12 -44 -7 -19 3 -42 4
-51 0 -19 -7 -21 -47 -3 -61 6 -6 74 -10 150 -10 107 0 142 3 153 14 35 35 5
67 -55 57 -22 -4 -42 -5 -43 -3 -1 2 -5 117 -8 254 l-5 250 -90 3 c-62 2 -94
-1 -103 -10z"/>
<path d="M1480 3232 c-25 -12 -39 -28 -49 -57 l-14 -40 -66 0 c-78 -1 -137
-27 -173 -77 -18 -27 -23 -46 -23 -98 0 -36 4 -72 8 -81 6 -12 0 -21 -26 -37
-71 -41 -71 -139 -1 -183 l35 -21 -28 -18 c-53 -33 -68 -58 -68 -115 0 -69 23
-101 100 -140 56 -28 67 -30 175 -30 108 0 119 2 175 30 75 37 105 79 105 145
0 118 -111 180 -323 180 -90 0 -123 11 -139 45 -10 22 -9 29 10 47 l21 21 66
-21 c105 -35 178 -25 242 31 43 38 63 82 63 139 0 47 -33 123 -61 141 -40 25
-14 97 34 97 40 0 48 -12 34 -49 -11 -29 -10 -34 7 -47 11 -8 26 -14 33 -14
25 0 53 39 53 73 0 79 -104 122 -190 79z m-61 -185 c37 -19 63 -60 63 -102 0
-115 -193 -146 -238 -38 -9 20 -12 47 -9 63 6 27 47 73 75 83 27 10 85 7 109
-6z m37 -448 c46 -12 94 -56 94 -88 0 -53 -65 -91 -169 -98 -93 -6 -154 9
-193 47 -34 34 -35 60 -5 95 43 50 168 70 273 44z"/>
<path d="M1990 3124 c-19 -8 -44 -24 -56 -35 -21 -19 -21 -19 -32 6 -11 24
-16 25 -91 25 -85 0 -105 -10 -99 -52 3 -20 9 -23 51 -23 31 0 51 -5 57 -15
12 -19 13 -400 1 -419 -8 -12 -14 -12 -39 -2 -40 17 -72 6 -72 -23 0 -41 16
-46 161 -46 76 0 144 3 153 6 22 8 21 63 0 71 -9 3 -25 1 -35 -5 -60 -38 -71
-4 -67 191 2 132 6 169 21 199 44 88 185 89 212 1 5 -19 0 -25 -29 -37 -43
-18 -49 -56 -14 -80 34 -24 66 -19 99 13 48 49 38 143 -23 197 -48 44 -134 56
-198 28z"/>
<path d="M2471 3123 c-62 -22 -124 -87 -150 -158 -23 -60 -30 -179 -15 -241
10 -41 42 -105 68 -132 87 -96 268 -93 368 7 67 67 78 150 21 159 -24 4 -37
-11 -53 -61 -7 -22 -26 -48 -48 -65 -30 -23 -45 -27 -97 -27 -52 0 -67 4 -98
28 -46 35 -77 94 -77 146 l0 41 208 2 207 3 -1 70 c-1 84 -24 136 -84 188 -65
56 -161 71 -249 40z m170 -86 c42 -28 81 -85 77 -112 -3 -19 -11 -20 -162 -23
l-159 -3 6 37 c16 97 156 157 238 101z"/>
<path d="M3071 3123 c-61 -22 -124 -87 -150 -157 -41 -110 -24 -274 37 -354
89 -117 286 -121 390 -8 63 69 69 151 11 151 -17 0 -28 -9 -37 -30 -28 -66
-39 -81 -77 -103 -109 -63 -255 27 -255 157 l0 41 208 2 207 3 -1 70 c-1 84
-24 136 -84 187 -67 58 -159 73 -249 41z m170 -85 c42 -23 86 -94 76 -121 -6
-15 -26 -17 -162 -17 l-155 0 0 29 c0 59 89 130 164 131 21 0 55 -9 77 -22z"/>
<path d="M3766 3126 c-21 -8 -51 -27 -67 -42 -26 -25 -29 -26 -29 -8 0 35 -20
44 -100 44 -81 0 -100 -9 -100 -46 0 -27 22 -36 67 -28 25 5 38 3 44 -7 5 -8
9 -103 9 -211 0 -222 -4 -236 -60 -216 -17 5 -37 7 -45 4 -18 -7 -20 -50 -2
-64 7 -5 74 -9 155 -9 129 0 144 2 153 18 6 13 6 26 -1 39 -12 22 -31 25 -61
9 -15 -8 -24 -7 -35 2 -13 11 -15 40 -12 183 3 150 5 175 23 206 55 94 210 91
251 -5 16 -39 20 -349 5 -374 -6 -9 -20 -11 -48 -6 -50 8 -72 -12 -55 -50 11
-24 13 -24 151 -24 150 0 166 5 159 51 -3 21 -8 23 -53 23 l-50 0 -6 190 c-6
190 -13 231 -47 269 -49 53 -172 79 -246 52z"/>
<path d="M1060 2025 c-29 -35 12 -78 54 -56 41 22 52 10 59 -66 9 -87 7 -462
-1 -528 l-7 -50 -49 0 c-55 0 -80 -21 -60 -52 10 -16 29 -18 160 -18 l149 0 0
35 c0 35 -1 35 -43 35 -51 0 -62 13 -62 77 0 43 3 49 52 93 30 27 55 42 60 37
18 -18 148 -197 148 -204 0 -4 -19 -6 -42 -5 -40 2 -43 0 -46 -27 -2 -16 2
-32 10 -37 7 -5 72 -9 145 -9 106 0 135 3 147 16 34 34 7 69 -46 59 -25 -5
-38 -1 -55 15 -22 20 -154 191 -187 241 l-17 26 82 74 c82 73 83 74 138 74 51
0 56 2 59 24 2 13 -1 28 -7 34 -13 13 -323 18 -342 6 -6 -3 -9 -19 -7 -35 3
-29 4 -29 61 -26 32 2 57 -1 57 -7 0 -5 -46 -53 -102 -105 l-103 -97 -3 232
c-1 151 -6 237 -13 246 -17 19 -172 18 -189 -2z"/>
<path d="M3146 2025 c-36 -37 -5 -75 45 -55 26 11 33 11 47 -4 15 -15 17 -48
17 -304 0 -158 -3 -299 -8 -314 -7 -26 -11 -28 -53 -25 -53 2 -78 -19 -58 -50
10 -16 31 -18 154 -21 152 -3 170 2 170 44 0 28 -27 38 -63 25 -49 -19 -57 3
-57 157 1 154 11 216 43 251 73 79 213 62 244 -29 13 -37 18 -317 6 -359 -5
-21 -10 -22 -44 -17 -20 3 -45 3 -53 0 -19 -7 -21 -47 -3 -62 17 -14 277 -14
294 0 7 6 13 21 13 34 0 25 -21 34 -75 31 l-30 -2 -6 190 c-6 210 -11 228 -73
283 -64 56 -158 67 -242 28 -28 -13 -55 -30 -60 -37 -6 -9 -11 37 -14 116 l-5
130 -86 3 c-69 2 -90 -1 -103 -13z"/>
<path d="M1872 2004 c-34 -23 -27 -83 11 -104 24 -13 30 -13 55 0 37 21 44 81
10 104 -12 9 -29 16 -38 16 -9 0 -26 -7 -38 -16z"/>
<path d="M2222 2008 c-6 -8 -12 -50 -14 -93 l-3 -80 -39 -5 c-75 -10 -75 -70
0 -80 l39 -5 5 -205 c4 -183 7 -209 25 -240 40 -69 133 -89 215 -47 56 28 78
71 86 170 8 84 -1 107 -41 107 -28 0 -35 -17 -35 -86 0 -101 -37 -147 -105
-130 -49 12 -58 44 -63 221 -3 90 -2 175 2 189 6 25 9 26 80 26 93 0 106 5
106 40 0 35 -13 40 -106 40 -85 0 -82 -4 -86 115 -3 67 -4 70 -29 73 -14 2
-31 -3 -37 -10z"/>
<path d="M2790 1841 c-75 -24 -123 -66 -161 -141 -27 -53 -38 -208 -20 -275
17 -66 65 -130 118 -162 41 -24 59 -28 123 -28 64 0 82 4 122 28 53 31 82 66
103 128 17 48 12 74 -17 90 -26 14 -54 -10 -62 -56 -13 -66 -73 -115 -143
-115 -98 0 -163 86 -163 217 0 97 16 148 60 194 56 59 155 65 206 14 30 -30
30 -47 2 -60 -33 -14 -37 -68 -6 -89 33 -23 65 -20 95 10 23 23 25 32 21 83
-5 70 -32 113 -91 143 -45 22 -145 33 -187 19z"/>
<path d="M4066 1834 c-56 -20 -102 -58 -131 -108 -37 -64 -46 -100 -46 -199 0
-77 3 -96 29 -151 59 -127 188 -177 325 -126 112 42 192 180 122 212 -30 13
-50 0 -60 -40 -10 -44 -33 -70 -77 -93 -111 -57 -247 32 -248 163 l0 38 208 2
207 3 -1 70 c-1 84 -24 136 -84 188 -64 55 -162 71 -244 41z m165 -87 c42 -28
81 -85 77 -112 -3 -19 -11 -20 -162 -23 l-159 -3 6 37 c16 97 156 157 238 101z"/>
<path d="M4756 1835 c-21 -7 -51 -26 -67 -41 -26 -25 -29 -26 -29 -8 0 35 -20
44 -100 44 -81 0 -100 -9 -100 -46 0 -27 22 -36 67 -28 25 5 38 3 44 -7 11
-18 11 -400 0 -417 -5 -9 -24 -12 -57 -10 -45 3 -49 1 -52 -20 -7 -46 8 -50
164 -49 116 2 147 5 154 17 13 20 12 23 -4 46 -13 17 -18 18 -47 7 -58 -22
-61 -12 -57 181 3 193 13 226 78 258 71 36 161 12 192 -52 15 -29 18 -63 18
-200 0 -91 -4 -171 -9 -179 -6 -9 -20 -11 -48 -6 -50 8 -72 -12 -55 -50 11
-23 13 -24 149 -23 80 0 143 4 151 10 6 6 12 21 12 34 0 25 -3 27 -65 28 l-40
1 -6 190 c-8 242 -17 266 -114 311 -57 27 -120 30 -179 9z"/>
<path d="M1772 1818 c-17 -17 -15 -55 4 -62 9 -4 32 -3 51 0 25 5 38 3 44 -7
5 -8 9 -102 9 -209 0 -107 -4 -201 -9 -209 -6 -10 -19 -12 -44 -7 -19 3 -42 4
-51 0 -19 -7 -21 -47 -3 -61 6 -6 74 -10 150 -10 107 0 142 3 153 14 35 35 5
67 -55 57 -22 -4 -42 -5 -43 -3 -1 2 -5 117 -8 254 l-5 250 -90 3 c-62 2 -94
-1 -103 -10z"/>
</g>
</svg>
